<svg id="b970babc-5f9c-4dec-ae80-ab9a8314b62c" data-name="Layer 1" xmlns="http://www.w3.org/2000/svg" width="233.02" height="233.49" viewBox="0 0 233.02 233.49"><defs><style>.a424e1ba-ffaf-4fbb-9f1e-6cb62ab6409c{fill:#173d69;}.b2989370-c4bf-4ca9-856a-66f49118267c{fill:#fff;}.a1ca4fe3-4a7c-442c-990b-4ae9cd3b057e{fill:#f27321;}</style></defs><polygon class="a424e1ba-ffaf-4fbb-9f1e-6cb62ab6409c" points="116.52 0 123.49 5.84 131.13 0.92 137.32 7.59 145.53 3.68 150.85 11.07 159.49 8.19 163.82 16.21 172.76 14.44 176.04 22.92 185.13 22.3 187.33 31.13 196.42 31.64 197.51 40.69 206.46 42.32 206.4 51.43 215.08 54.19 213.87 63.2 222.14 67.04 219.83 75.83 227.53 80.66 224.13 89.1 231.19 94.86 226.75 102.82 233.02 109.42 227.61 116.73 233.02 124.07 226.75 130.67 231.19 138.61 224.13 144.37 227.53 152.81 219.83 157.64 222.14 166.45 213.87 170.27 215.08 179.29 206.4 182.06 206.46 191.15 197.51 192.8 196.42 201.85 187.33 202.35 185.13 211.19 176.04 210.55 172.76 219.03 163.82 217.28 159.49 225.28 150.85 222.42 145.53 229.81 137.32 225.88 131.13 232.55 123.49 227.63 116.52 233.49 109.53 227.63 101.89 232.55 95.68 225.88 87.47 229.81 82.17 222.42 73.53 225.28 69.2 217.28 60.26 219.03 56.98 210.55 47.89 211.19 45.69 202.35 36.6 201.85 35.51 192.8 26.56 191.15 26.62 182.06 17.94 179.29 19.15 170.27 10.88 166.45 13.19 157.64 5.49 152.81 8.89 144.37 1.83 138.61 6.27 130.67 0 124.07 5.39 116.73 0 109.42 6.27 102.82 1.83 94.86 8.89 89.1 5.49 80.66 13.19 75.83 10.88 67.04 19.15 63.2 17.94 54.19 26.62 51.43 26.56 42.32 35.51 40.69 36.6 31.64 45.69 31.13 47.89 22.3 56.98 22.92 60.26 14.44 69.2 16.21 73.53 8.19 82.17 11.07 87.47 3.68 95.68 7.59 101.89 0.92 109.53 5.84 116.52 0"/><path class="b2989370-c4bf-4ca9-856a-66f49118267c" d="M1745.92,705.07a101.95,101.95,0,1,1,102-101.92A101.94,101.94,0,0,1,1745.92,705.07Zm0-201A99.09,99.09,0,1,0,1845,603.15,99.08,99.08,0,0,0,1745.92,504.06Z" transform="translate(-1629.42 -486.39)"/><path class="b2989370-c4bf-4ca9-856a-66f49118267c" d="M1832,607.37h1.11c1.11-1,2.2-2,3.31-3a2.76,2.76,0,0,1-.3,3.19h1.11a3.78,3.78,0,0,0-.13-3.89,3.84,3.84,0,0,0,.35-.54h-1.13c-1.09,1.07-2.18,2.1-3.29,3.07a2.59,2.59,0,0,1,.29-3.07h-1.11a3.32,3.32,0,0,0-.48,1.59,3.14,3.14,0,0,0,.62,2.14A2.85,2.85,0,0,0,1832,607.37Z" transform="translate(-1629.42 -486.39)"/><path class="b2989370-c4bf-4ca9-856a-66f49118267c" d="M1831.79,611.59l1.11.12c1.09-.94,2.2-2,3.29-2.9a2.71,2.71,0,0,1-.29,3.19H1837a3.45,3.45,0,0,0,.49-1.65,3.67,3.67,0,0,0-.63-2.3l.37-.53h-1.13c-1.09,1-2.19,2-3.28,2.92a2.61,2.61,0,0,1,.27-3.07H1832a3.5,3.5,0,0,0-.47,1.57,3.46,3.46,0,0,0,.62,2.16A3.36,3.36,0,0,0,1831.79,611.59Z" transform="translate(-1629.42 -486.39)"/><path class="b2989370-c4bf-4ca9-856a-66f49118267c" d="M1831.17,615.77l1.11.18c1.19-.88,2.38-1.77,3.58-2.71a2.74,2.74,0,0,1-.6,3.14l1.11.17a4,4,0,0,0,.64-1.63,3.66,3.66,0,0,0-.39-2.32,3.08,3.08,0,0,0,.37-.5h-1.13a43,43,0,0,1-3.54,2.74,2.69,2.69,0,0,1,.54-3l-1.08-.11a4.25,4.25,0,0,0-.63,1.54,3.35,3.35,0,0,0,.43,2.19A4.71,4.71,0,0,0,1831.17,615.77Z" transform="translate(-1629.42 -486.39)"/><path class="b2989370-c4bf-4ca9-856a-66f49118267c" d="M1830.53,620l1.11.23c1.17-.82,2.35-1.67,3.56-2.57a2.8,2.8,0,0,1-.6,3.16l1.09.21a3.9,3.9,0,0,0,.25-3.89,4.83,4.83,0,0,0,.41-.49l-1.11-.17c-1.19.89-2.38,1.77-3.56,2.58a2.52,2.52,0,0,1,.58-3l-1.11-.18a3.39,3.39,0,0,0-.62,1.52,3.43,3.43,0,0,0,.41,2.24A2.41,2.41,0,0,0,1830.53,620Z" transform="translate(-1629.42 -486.39)"/><path class="b2989370-c4bf-4ca9-856a-66f49118267c" d="M1829.52,624.08l1.11.28,3.89-2.36a2.78,2.78,0,0,1-.92,3.08l1.07.27a3.84,3.84,0,0,0,.82-1.56,3.4,3.4,0,0,0-.17-2.33c.14-.15.28-.31.41-.47l-1.09-.23a43.52,43.52,0,0,1-3.9,2.39,2.74,2.74,0,0,1,.84-3l-1.09-.21a4.67,4.67,0,0,0-.74,1.48,3.33,3.33,0,0,0,.2,2.22A3.42,3.42,0,0,0,1829.52,624.08Z" transform="translate(-1629.42 -486.39)"/><path class="b2989370-c4bf-4ca9-856a-66f49118267c" d="M1828.47,628.17l1.09.33c1.24-.7,2.51-1.42,3.89-2.18a2.71,2.71,0,0,1-.92,3.06l1.07.31a3.41,3.41,0,0,0,.8-1.54,3.64,3.64,0,0,0-.15-2.35,3.92,3.92,0,0,0,.46-.45l-1.09-.27c-1.28.77-2.55,1.51-3.89,2.21a2.56,2.56,0,0,1,.9-2.95l-1.09-.26a3.38,3.38,0,0,0-.78,1.44,3.51,3.51,0,0,0,.19,2.26A2.93,2.93,0,0,0,1828.47,628.17Z" transform="translate(-1629.42 -486.39)"/><path class="b2989370-c4bf-4ca9-856a-66f49118267c" d="M1827.09,632.16l1.05.39c1.34-.62,2.68-1.27,4-1.95a2.74,2.74,0,0,1-1.2,3l1,.37a3.76,3.76,0,0,0,1-3.89,4.79,4.79,0,0,0,.47-.43l-1.09-.31c-1.25.72-2.69,1.36-3.89,1.94a2.68,2.68,0,0,1,1.1-2.86l-1.07-.33a5.21,5.21,0,0,0-.87,1.4,3.51,3.51,0,0,0,0,2.22A3.14,3.14,0,0,0,1827.09,632.16Z" transform="translate(-1629.42 -486.39)"/><path class="b2989370-c4bf-4ca9-856a-66f49118267c" d="M1825.63,636.23l1,.42c1.32-.56,2.66-1.16,4-1.81a2.73,2.73,0,0,1-1.23,3l1,.43a3.61,3.61,0,0,0,1-1.44,3.84,3.84,0,0,0,0-2.37,3,3,0,0,0,.51-.41l-1.07-.37c-1.34.64-2.69,1.24-4,1.83a2.55,2.55,0,0,1,1.17-2.84l-1-.39a3.46,3.46,0,0,0-1,3.62Z" transform="translate(-1629.42 -486.39)"/><path class="b2989370-c4bf-4ca9-856a-66f49118267c" d="M1823.84,640l1,.49c1.38-.49,2.78-1,4.2-1.54a2.71,2.71,0,0,1-1.48,2.82l1,.47a3.85,3.85,0,0,0,1.11-1.36,3.45,3.45,0,0,0,.28-2.32,3.07,3.07,0,0,0,.5-.39l-1-.43c-1.32.61-2.82,1.09-4.18,1.6a2.67,2.67,0,0,1,1.4-2.74l-1-.43a4.77,4.77,0,0,0-1,1.3,3.48,3.48,0,0,0-.25,2.2Z" transform="translate(-1629.42 -486.39)"/><path class="b2989370-c4bf-4ca9-856a-66f49118267c" d="M1822.07,643.8l1,.52c1.29-.43,2.68-.89,4.14-1.4a2.7,2.7,0,0,1-1.48,2.82l1,.53a3.8,3.8,0,0,0,1.4-3.7,3.84,3.84,0,0,0,.54-.35l-1-.49c-1.42.53-2.8,1-4.18,1.44a2.59,2.59,0,0,1,1.46-2.72l-1-.47a3.32,3.32,0,0,0-1.05,1.27,1.69,1.69,0,0,1-.77,2.55Z" transform="translate(-1629.42 -486.39)"/><path class="b2989370-c4bf-4ca9-856a-66f49118267c" d="M1819.85,647.43l1,.59c1.42-.35,2.88-.72,4.34-1.13a2.77,2.77,0,0,1-1.75,2.67l.93.58a3.8,3.8,0,0,0,1.25-1.27,3.49,3.49,0,0,0,.5-2.27,2.77,2.77,0,0,0,.55-.33l-1-.53c-1.39.47-2.92.82-4.32,1.17a2.67,2.67,0,0,1,1.65-2.59l-1-.52a4.3,4.3,0,0,0-1.15,1.18,3.41,3.41,0,0,0-.45,2.18Z" transform="translate(-1629.42 -486.39)"/><path class="b2989370-c4bf-4ca9-856a-66f49118267c" d="M1817.65,651.05l.93.63c1.4-.3,2.84-.63,4.28-1a2.74,2.74,0,0,1-1.77,2.67l.94.62a3.9,3.9,0,0,0,1.75-3.54,3,3,0,0,0,.56-.29l-.95-.58c-1.46.36-2.88.7-4.3,1a2.56,2.56,0,0,1,1.71-2.57l-1-.57a3.15,3.15,0,0,0-1.17,1.15,1.71,1.71,0,0,1-1,2.47Z" transform="translate(-1629.42 -486.39)"/><path class="b2989370-c4bf-4ca9-856a-66f49118267c" d="M1815.14,654.46l.91.68c1.46-.21,2.94-.43,4.44-.7a2.75,2.75,0,0,1-2,2.49l.9.66a3.66,3.66,0,0,0,1.34-1.13,3.48,3.48,0,0,0,.74-2.22,1.93,1.93,0,0,0,.56-.27l-.93-.62c-1.44.31-3,.53-4.42.74a2.65,2.65,0,0,1,2-2.41l-.93-.63a4.52,4.52,0,0,0-1.27,1.07,3.3,3.3,0,0,0-.66,2.12Z" transform="translate(-1629.42 -486.39)"/><path class="b2989370-c4bf-4ca9-856a-66f49118267c" d="M1812.61,657.84l.87.72c1.42-.15,2.86-.35,4.34-.56a2.73,2.73,0,0,1-1.94,2.47l.85.72a3.84,3.84,0,0,0,1.33-1.11,3.74,3.74,0,0,0,.76-2.25,3.41,3.41,0,0,0,.6-.24l-.92-.68q-2.19.35-4.35.6a2.58,2.58,0,0,1,1.94-2.39l-.89-.66a3.19,3.19,0,0,0-1.27,1,3.6,3.6,0,0,0-.76,2.14Z" transform="translate(-1629.42 -486.39)"/><path class="b2989370-c4bf-4ca9-856a-66f49118267c" d="M1809.77,661l.83.76c1.48,0,3-.16,4.48-.26a2.73,2.73,0,0,1-2.24,2.28l.82.74a3.75,3.75,0,0,0,1.46-1,3.59,3.59,0,0,0,.93-2.14,3.21,3.21,0,0,0,.62-.2l-.87-.72c-1.5.14-3,.22-4.5.29a2.67,2.67,0,0,1,2.16-2.2l-.85-.72a4.15,4.15,0,0,0-1.36.94,3.43,3.43,0,0,0-.86,2.06A3.32,3.32,0,0,0,1809.77,661Z" transform="translate(-1629.42 -486.39)"/><path class="b2989370-c4bf-4ca9-856a-66f49118267c" d="M1806.93,664.13l.79.8a40.44,40.44,0,0,0,4.38-.16,2.73,2.73,0,0,1-2.24,2.28l.78.8a3.49,3.49,0,0,0,1.44-1,3.86,3.86,0,0,0,1-2.18,3.38,3.38,0,0,0,.6-.17l-.84-.76c-1.48,0-3,.16-4.4.18a2.59,2.59,0,0,1,2.18-2.2l-.83-.74a3.09,3.09,0,0,0-1.37.91,3.52,3.52,0,0,0-.89,2.08A3.77,3.77,0,0,0,1806.93,664.13Z" transform="translate(-1629.42 -486.39)"/><path class="b2989370-c4bf-4ca9-856a-66f49118267c" d="M1803.79,667l.76.84c1.46,0,3,.13,4.48.17a2.78,2.78,0,0,1-2.53,2.07l.74.81a3.73,3.73,0,0,0,1.53-.85,1.82,1.82,0,0,1,1.79-2.07l-.79-.79a41.74,41.74,0,0,1-4.5-.16,2.64,2.64,0,0,1,2.38-2l-.8-.77a3.37,3.37,0,0,0-2.53,2.74Z" transform="translate(-1629.42 -486.39)"/><path class="b2989370-c4bf-4ca9-856a-66f49118267c" d="M1800.66,669.81l.7.88c1.46.13,2.9.21,4.38.29a2.67,2.67,0,0,1-2.45,1.95l.7.87a3.48,3.48,0,0,0,1.54-.84,3.88,3.88,0,0,0,1.16-2.06,3.5,3.5,0,0,0,.63-.12l-.82-.75c-1.48,0-2.94-.14-4.38-.26a2.58,2.58,0,0,1,2.35-1.94l-.74-.82a3.26,3.26,0,0,0-1.45.78,3.45,3.45,0,0,0-1.07,1.94Z" transform="translate(-1629.42 -486.39)"/><path class="b2989370-c4bf-4ca9-856a-66f49118267c" d="M1797.25,672.34l.69.92c1.44.21,2.91.42,4.41.6a2.74,2.74,0,0,1-2.62,1.81l.66.89a3.43,3.43,0,0,0,1.61-.7,3.56,3.56,0,0,0,1.33-1.94,3.64,3.64,0,0,0,.66,0l-.72-.86c-1.52-.17-3-.37-4.46-.58a2.58,2.58,0,0,1,2.55-1.75l-.7-.92a3.8,3.8,0,0,0-1.52.64,3.38,3.38,0,0,0-1.24,1.95Z" transform="translate(-1629.42 -486.39)"/><path class="b2989370-c4bf-4ca9-856a-66f49118267c" d="M1793.85,674.85l.62.94c1.46.31,2.86.5,4.34.72a2.68,2.68,0,0,1-2.66,1.79l.62.91a3,3,0,0,0,1.61-.64,3.71,3.71,0,0,0,1.37-2,2.29,2.29,0,0,0,.64,0l-.66-.91c-1.48-.2-2.94-.43-4.34-.66a2.51,2.51,0,0,1,2.53-1.75l-.67-.9a3.23,3.23,0,0,0-1.51.64,3.39,3.39,0,0,0-1.27,2Z" transform="translate(-1629.42 -486.39)"/><path class="b2989370-c4bf-4ca9-856a-66f49118267c" d="M1790.23,677.09l.58,1c1.42.35,2.86.7,4.34,1a2.7,2.7,0,0,1-2.78,1.56l.57,1a3.44,3.44,0,0,0,1.67-.54,3.69,3.69,0,0,0,1.52-1.79h.64l-.62-.93c-1.5-.32-3-.65-4.38-1a2.57,2.57,0,0,1,2.7-1.49l-.62-.92a3.52,3.52,0,0,0-1.6.49,3.3,3.3,0,0,0-1.32,1.71A4.09,4.09,0,0,0,1790.23,677.09Z" transform="translate(-1629.42 -486.39)"/><path class="b2989370-c4bf-4ca9-856a-66f49118267c" d="M1786.59,679.21l.53,1c1.42.47,2.8.78,4.24,1.15a2.61,2.61,0,0,1-2.82,1.5l.52,1a3.11,3.11,0,0,0,1.7-.48,3.81,3.81,0,0,0,1.53-1.81h.59l-.59-1c-1.44-.35-2.86-.72-4.24-1.09a2.58,2.58,0,0,1,2.69-1.5l-.51-.91a3.29,3.29,0,0,0-1.58.49,3.45,3.45,0,0,0-1.44,1.75A2.2,2.2,0,0,0,1786.59,679.21Z" transform="translate(-1629.42 -486.39)"/><path class="b2989370-c4bf-4ca9-856a-66f49118267c" d="M1782.78,681l.48,1c1.37.51,2.79,1,4.23,1.46a2.72,2.72,0,0,1-2.94,1.27l.47,1a3.77,3.77,0,0,0,1.71-.37,3.7,3.7,0,0,0,1.69-1.65h.64l-.52-1c-1.46-.44-2.88-.93-4.26-1.42a2.62,2.62,0,0,1,2.76-1.09l-.53-1a3.41,3.41,0,0,0-1.63.33,3.46,3.46,0,0,0-1.58,1.58Z" transform="translate(-1629.42 -486.39)"/><path class="b2989370-c4bf-4ca9-856a-66f49118267c" d="M1778.94,682.93l.43,1c1.38.64,2.71,1,4.11,1.57a2.58,2.58,0,0,1-3,1.21l.43,1a2.89,2.89,0,0,0,1.73-.31,3.7,3.7,0,0,0,1.71-1.65,3.32,3.32,0,0,0,.63,0l-.47-1c-1.42-.47-2.78-1-4.13-1.48a2.55,2.55,0,0,1,2.82-1.23l-.46-1a3.35,3.35,0,0,0-1.62.33,3.51,3.51,0,0,0-1.61,1.6A3.08,3.08,0,0,0,1778.94,682.93Z" transform="translate(-1629.42 -486.39)"/><path class="b2989370-c4bf-4ca9-856a-66f49118267c" d="M1775,684.27l.37,1.07c1.33.62,2.67,1.25,4.07,1.95a2.77,2.77,0,0,1-3.05,1l.37,1.05a4,4,0,0,0,1.75-.21,3.66,3.66,0,0,0,1.83-1.46,4.5,4.5,0,0,0,.64.11l-.43-1c-1.4-.58-2.76-1.2-4.09-1.83a2.59,2.59,0,0,1,2.94-.95l-.43-1a3.22,3.22,0,0,0-1.63,0,3.32,3.32,0,0,0-1.73,1.42A3.09,3.09,0,0,0,1775,684.27Z" transform="translate(-1629.42 -486.39)"/><path class="b2989370-c4bf-4ca9-856a-66f49118267c" d="M1771,685.67l.33,1.09c1.3.76,2.58,1.3,3.89,2a2.58,2.58,0,0,1-3.06.91l.33,1.07a3,3,0,0,0,1.74-.15,3.73,3.73,0,0,0,1.94-1.46l.62.11-.37-1.05c-1.36-.62-2.66-1.24-3.89-1.94a2.59,2.59,0,0,1,2.94-1l-.37-1a3.24,3.24,0,0,0-1.63.18,3.45,3.45,0,0,0-1.77,1.42Z" transform="translate(-1629.42 -486.39)"/><path class="b2989370-c4bf-4ca9-856a-66f49118267c" d="M1766.88,686.82l.27,1.11c1.25.74,2.53,1.5,3.89,2.24a2.8,2.8,0,0,1-3.13.68l.27,1.07a3.89,3.89,0,0,0,3.74-1.31,3.38,3.38,0,0,0,.62.18l-.33-1.07c-1.34-.74-2.63-1.48-3.89-2.24a2.55,2.55,0,0,1,3-.64l-.34-1.07a3.38,3.38,0,0,0-3.5,1.26A3.48,3.48,0,0,0,1766.88,686.82Z" transform="translate(-1629.42 -486.39)"/><path class="b2989370-c4bf-4ca9-856a-66f49118267c" d="M1762.75,687.73l.24,1.11c1.22.88,2.43,1.56,3.71,2.34a2.58,2.58,0,0,1-3.13.6l.22,1.09a2.76,2.76,0,0,0,1.75,0,3.93,3.93,0,0,0,1.94-1.28,3.31,3.31,0,0,0,.61.19l-.28-1.09c-1.29-.75-2.54-1.51-3.73-2.28a2.56,2.56,0,0,1,3-.64l-.27-1.09a3.29,3.29,0,0,0-1.65,0,3.44,3.44,0,0,0-2,1.25A3.9,3.9,0,0,0,1762.75,687.73Z" transform="translate(-1629.42 -486.39)"/><path class="b2989370-c4bf-4ca9-856a-66f49118267c" d="M1758.57,688.36l.18,1.12c1.16.88,2.37,1.76,3.62,2.61a2.72,2.72,0,0,1-3.2.37l.18,1.09a3.84,3.84,0,0,0,1.75.16,3.77,3.77,0,0,0,2.08-1.07,3.47,3.47,0,0,0,.61.23l-.22-1.11c-1.26-.85-2.47-1.73-3.66-2.61a2.59,2.59,0,0,1,3.08-.33l-.24-1.09a3.18,3.18,0,0,0-1.65-.15,3.39,3.39,0,0,0-1.95,1A3.06,3.06,0,0,0,1758.57,688.36Z" transform="translate(-1629.42 -486.39)"/><path class="b2989370-c4bf-4ca9-856a-66f49118267c" d="M1754.39,689l.11,1.11c1.13,1,2.28,1.79,3.47,2.68a2.64,2.64,0,0,1-3.17.31v1.11a3.28,3.28,0,0,0,1.73.2,3.9,3.9,0,0,0,2.14-1.09,2,2,0,0,0,.58.25l-.17-1.11q-1.82-1.31-3.51-2.64a2.58,2.58,0,0,1,3.08-.33l-.18-1.11a3.38,3.38,0,0,0-3.64.91Z" transform="translate(-1629.42 -486.39)"/><path class="b2989370-c4bf-4ca9-856a-66f49118267c" d="M1750.16,689.17v1.13q1.62,1.49,3.33,3a2.75,2.75,0,0,1-3.19,0v1.11a3.76,3.76,0,0,0,3.91-.55,5.24,5.24,0,0,0,.57.32V693c-1.17-1-2.3-1.95-3.39-3a2.57,2.57,0,0,1,3.09,0l-.11-1.11a3.3,3.3,0,0,0-1.64-.31,3.4,3.4,0,0,0-2.06.83Z" transform="translate(-1629.42 -486.39)"/><path class="b2989370-c4bf-4ca9-856a-66f49118267c" d="M1745.92,689.41v1.11c1,1,2.1,1.94,3.19,3a2.72,2.72,0,0,1-3.19,0v1.11a3.75,3.75,0,0,0,3.93-.52,5.18,5.18,0,0,0,.57.31v-1.13c-1.11-1-2.18-2-3.23-3a2.57,2.57,0,0,1,3.09,0v-1.11a3.31,3.31,0,0,0-1.61-.31,3.55,3.55,0,0,0-2.11.84A2.07,2.07,0,0,0,1745.92,689.41Z" transform="translate(-1629.42 -486.39)"/><path class="b2989370-c4bf-4ca9-856a-66f49118267c" d="M1741.7,689.17v1.13c1,1.11,2,2.2,3,3.29a2.73,2.73,0,0,1-3.19-.27v1.11a3.88,3.88,0,0,0,1.7.48,3.47,3.47,0,0,0,2.25-.64,2.4,2.4,0,0,0,.53.37v-1.13c-1-1.09-2.08-2.2-3.08-3.29a2.61,2.61,0,0,1,3.08.28v-1.11a3.65,3.65,0,0,0-1.58-.49,3.36,3.36,0,0,0-2.14.64A4.83,4.83,0,0,0,1741.7,689.17Z" transform="translate(-1629.42 -486.39)"/><path class="b2989370-c4bf-4ca9-856a-66f49118267c" d="M1737.48,689l-.12,1.11c.93,1.09,2,2.2,2.9,3.29a2.73,2.73,0,0,1-3.19-.3v1.11a3.45,3.45,0,0,0,1.65.49,3.74,3.74,0,0,0,2.3-.62,6.15,6.15,0,0,0,.52.37V693.3c-1-1.11-1.94-2.2-2.91-3.29a2.54,2.54,0,0,1,3,.27v-1.11a3.39,3.39,0,0,0-1.58-.48,3.48,3.48,0,0,0-2.16.64A3.1,3.1,0,0,0,1737.48,689Z" transform="translate(-1629.42 -486.39)"/><path class="b2989370-c4bf-4ca9-856a-66f49118267c" d="M1733.29,688.36l-.17,1.12c.87,1.19,1.77,2.38,2.7,3.59a2.76,2.76,0,0,1-3.13-.61l-.17,1.09a3.59,3.59,0,0,0,1.63.66,3.48,3.48,0,0,0,2.32-.41,1.73,1.73,0,0,0,.5.39v-1.12a43.16,43.16,0,0,1-2.74-3.55,2.66,2.66,0,0,1,3,.55l.12-1.11a4.66,4.66,0,0,0-1.54-.6,3.33,3.33,0,0,0-2.2.42A2.79,2.79,0,0,0,1733.29,688.36Z" transform="translate(-1629.42 -486.39)"/><path class="b2989370-c4bf-4ca9-856a-66f49118267c" d="M1729.09,687.73l-.21,1.11c.81,1.17,1.67,2.36,2.55,3.56a2.74,2.74,0,0,1-3.14-.62l-.21,1.09a3.52,3.52,0,0,0,1.61.66,3.66,3.66,0,0,0,2.34-.39,2.73,2.73,0,0,0,.49.41l.17-1.11c-.91-1.18-1.77-2.39-2.59-3.56a2.52,2.52,0,0,1,3,.59l.17-1.11a3.72,3.72,0,0,0-1.53-.65,3.44,3.44,0,0,0-2.22.43A2.52,2.52,0,0,0,1729.09,687.73Z" transform="translate(-1629.42 -486.39)"/><path class="b2989370-c4bf-4ca9-856a-66f49118267c" d="M1725,686.82l-.27,1.11c.74,1.26,1.52,2.55,2.34,3.89a2.75,2.75,0,0,1-3.06-1.11l-.27,1.07a3.84,3.84,0,0,0,1.56.82,3.52,3.52,0,0,0,2.33-.18,2.27,2.27,0,0,0,.47.41l.21-1.11c-.83-1.16-1.61-2.53-2.37-3.77a2.67,2.67,0,0,1,3,.83l.21-1.09a4.36,4.36,0,0,0-1.46-.73,3.33,3.33,0,0,0-2.22.19A2.88,2.88,0,0,0,1725,686.82Z" transform="translate(-1629.42 -486.39)"/><path class="b2989370-c4bf-4ca9-856a-66f49118267c" d="M1720.88,685.67l-.33,1.09c.68,1.25,1.42,2.51,2.18,3.89a2.73,2.73,0,0,1-3.06-.91l-.33,1.07a3.9,3.9,0,0,0,3.89.64,4,4,0,0,0,.45.47l.27-1.09c-.78-1.29-1.51-2.55-2.22-3.89a2.52,2.52,0,0,1,2.94.89l.28-1.09a3.5,3.5,0,0,0-1.44-.78,3.64,3.64,0,0,0-2.26.18A4.25,4.25,0,0,0,1720.88,685.67Z" transform="translate(-1629.42 -486.39)"/><path class="b2989370-c4bf-4ca9-856a-66f49118267c" d="M1717,684.27l-.37,1.07c.6,1.34,1.26,2.69,1.94,4a2.74,2.74,0,0,1-3-1.21l-.39,1.05a4,4,0,0,0,1.47,1,3.48,3.48,0,0,0,2.34,0,5.93,5.93,0,0,0,.43.44l.33-1.07a38.07,38.07,0,0,1-2-4,2.75,2.75,0,0,1,2.88,1.13l.33-1.07a4.51,4.51,0,0,0-1.4-.87,3.2,3.2,0,0,0-2.24,0A2.67,2.67,0,0,0,1717,684.27Z" transform="translate(-1629.42 -486.39)"/><path class="b2989370-c4bf-4ca9-856a-66f49118267c" d="M1712.92,682.93l-.43,1c.57,1.32,1.17,2.66,1.79,4a2.72,2.72,0,0,1-2.94-1.23l-.42,1a3.45,3.45,0,0,0,1.44,1,3.7,3.7,0,0,0,2.37,0,2.43,2.43,0,0,0,.41.5l.37-1.05c-.64-1.36-1.27-2.68-1.83-4a2.54,2.54,0,0,1,2.84,1.17l.37-1.05a3.32,3.32,0,0,0-1.36-.92,3.5,3.5,0,0,0-2.26,0A2.51,2.51,0,0,0,1712.92,682.93Z" transform="translate(-1629.42 -486.39)"/><path class="b2989370-c4bf-4ca9-856a-66f49118267c" d="M1709.09,681l-.49,1c.49,1.4,1,2.81,1.54,4.23a2.73,2.73,0,0,1-2.88-1.35l-.49,1a4.1,4.1,0,0,0,1.38,1.1,3.45,3.45,0,0,0,2.32.28,6.12,6.12,0,0,0,.39.5l.43-1c-.61-1.3-1.09-2.8-1.6-4.16a2.69,2.69,0,0,1,2.74,1.38l.43-1a4.55,4.55,0,0,0-1.3-1,3.22,3.22,0,0,0-2.22-.26A4.28,4.28,0,0,0,1709.09,681Z" transform="translate(-1629.42 -486.39)"/><path class="b2989370-c4bf-4ca9-856a-66f49118267c" d="M1705.31,679.21l-.52,1c.42,1.37.89,2.75,1.38,4.15a2.71,2.71,0,0,1-2.8-1.42l-.53,1a3.55,3.55,0,0,0,1.34,1.09,3.7,3.7,0,0,0,2.36.31,3.19,3.19,0,0,0,.35.55l.46-1c-.5-1.4-1-2.78-1.42-4.16a2.62,2.62,0,0,1,2.73,1.46l.47-1a3.41,3.41,0,0,0-3.51-1.31A2.85,2.85,0,0,0,1705.31,679.21Z" transform="translate(-1629.42 -486.39)"/><path class="b2989370-c4bf-4ca9-856a-66f49118267c" d="M1701.63,677.09l-.58,1c.35,1.42.72,2.88,1.13,4.34a2.77,2.77,0,0,1-2.71-1.81l-.56,1a3.87,3.87,0,0,0,1.24,1.24,3.64,3.64,0,0,0,2.3.51,2.69,2.69,0,0,0,.33.54l.59-.91c-.47-1.38-.82-2.9-1.17-4.32a2.73,2.73,0,0,1,2.59,1.67l.52-1a4.65,4.65,0,0,0-1.19-1.15,3.31,3.31,0,0,0-2.17-.45A5.2,5.2,0,0,0,1701.63,677.09Z" transform="translate(-1629.42 -486.39)"/><path class="b2989370-c4bf-4ca9-856a-66f49118267c" d="M1698,674.85l-.62.94c.29,1.4.62,2.82,1,4.28a2.71,2.71,0,0,1-2.64-1.77l-.62.91a3.68,3.68,0,0,0,1.22,1.23,3.86,3.86,0,0,0,2.32.54,2.55,2.55,0,0,0,.29.57l.58-1c-.37-1.46-.72-2.88-1-4.3a2.59,2.59,0,0,1,2.57,1.71l.56-1a3.45,3.45,0,0,0-1.14-1.17,3.53,3.53,0,0,0-2.22-.48A5.52,5.52,0,0,0,1698,674.85Z" transform="translate(-1629.42 -486.39)"/><path class="b2989370-c4bf-4ca9-856a-66f49118267c" d="M1694.61,672.34l-.68.92c.19,1.46.43,2.92.7,4.41a2.72,2.72,0,0,1-2.49-1.94l-.66.89a3.85,3.85,0,0,0,1.12,1.35,3.63,3.63,0,0,0,2.22.73,1.69,1.69,0,0,0,.28.57l.62-.94c-.31-1.44-.53-3-.74-4.41a2.65,2.65,0,0,1,2.41,1.94l.62-.91a4.22,4.22,0,0,0-1.07-1.27,3.42,3.42,0,0,0-2.12-.66A3.68,3.68,0,0,0,1694.61,672.34Z" transform="translate(-1629.42 -486.39)"/><path class="b2989370-c4bf-4ca9-856a-66f49118267c" d="M1691.2,669.81l-.7.88c.16,1.42.35,2.86.57,4.34a2.77,2.77,0,0,1-2.49-1.95l-.7.88a3.53,3.53,0,0,0,1.11,1.32,3.72,3.72,0,0,0,2.25.76,3.13,3.13,0,0,0,.24.6l.66-.91c-.22-1.48-.43-2.92-.59-4.36a2.57,2.57,0,0,1,2.4,1.94l.66-.89a3.31,3.31,0,0,0-1-1.36,3.61,3.61,0,0,0-2.14-.68A3.1,3.1,0,0,0,1691.2,669.81Z" transform="translate(-1629.42 -486.39)"/><path class="b2989370-c4bf-4ca9-856a-66f49118267c" d="M1688.07,667l-.76.84c0,1.48.14,3,.25,4.47a2.74,2.74,0,0,1-2.27-2.23l-.74.81a3.75,3.75,0,0,0,1,1.46,3.63,3.63,0,0,0,2.14.94,1.85,1.85,0,0,0,.2.6l.72-.86c-.16-1.5-.24-3-.3-4.49a2.62,2.62,0,0,1,2.2,2.16l.7-.86a3.79,3.79,0,0,0-.93-1.38,3.53,3.53,0,0,0-2-.86C1688.19,667.37,1688.13,667.17,1688.07,667Z" transform="translate(-1629.42 -486.39)"/><path class="b2989370-c4bf-4ca9-856a-66f49118267c" d="M1684.94,664.13l-.8.8c0,1.44,0,2.88.14,4.38a2.78,2.78,0,0,1-2.32-2.26l-.78.8a3.72,3.72,0,0,0,3.15,2.39,3.38,3.38,0,0,0,.18.62l.76-.83c0-1.48-.16-3-.18-4.4a2.6,2.6,0,0,1,2.2,2.16l.74-.82a3.3,3.3,0,0,0-.91-1.36,3.53,3.53,0,0,0-2.08-.9A3.91,3.91,0,0,0,1684.94,664.13Z" transform="translate(-1629.42 -486.39)"/><path class="b2989370-c4bf-4ca9-856a-66f49118267c" d="M1682.08,661l-.82.76c-.1,1.46-.16,3-.17,4.47a2.74,2.74,0,0,1-2.07-2.45l-.81.74a3.67,3.67,0,0,0,.83,1.54,3.63,3.63,0,0,0,2.06,1.14,3.55,3.55,0,0,0,.12.65l.8-.8a44.31,44.31,0,0,1,.15-4.5,2.56,2.56,0,0,1,1.95,2.36l.8-.78a3.44,3.44,0,0,0-.8-1.46,3.27,3.27,0,0,0-1.95-1.07A2,2,0,0,0,1682.08,661Z" transform="translate(-1629.42 -486.39)"/><path class="b2989370-c4bf-4ca9-856a-66f49118267c" d="M1679.26,657.84l-.88.72c-.14,1.46-.21,2.88-.29,4.38a2.69,2.69,0,0,1-2-2.47l-.85.72a3.63,3.63,0,0,0,.81,1.54,4,4,0,0,0,2.09,1.17,2.6,2.6,0,0,0,.11.62l.84-.76c0-1.48.14-3,.23-4.38a2.57,2.57,0,0,1,2,2.36l.84-.74a3.39,3.39,0,0,0-2.79-2.53C1679.31,658.25,1679.28,658.06,1679.26,657.84Z" transform="translate(-1629.42 -486.39)"/><path class="b2989370-c4bf-4ca9-856a-66f49118267c" d="M1676.73,654.46l-.92.68c-.21,1.44-.43,2.92-.6,4.42a2.71,2.71,0,0,1-1.81-2.63l-.9.66a4,4,0,0,0,.7,1.62,3.52,3.52,0,0,0,2,1.32,3.64,3.64,0,0,0,0,.66l.88-.72c.17-1.52.37-3,.58-4.45a2.58,2.58,0,0,1,1.75,2.54l.86-.72a3.78,3.78,0,0,0-.65-1.53,3.39,3.39,0,0,0-1.94-1.23A4.22,4.22,0,0,0,1676.73,654.46Z" transform="translate(-1629.42 -486.39)"/><path class="b2989370-c4bf-4ca9-856a-66f49118267c" d="M1674.18,651.05l-.94.63c-.31,1.44-.5,2.86-.74,4.32a2.65,2.65,0,0,1-1.77-2.65l-.93.62a3.13,3.13,0,0,0,.66,1.62,3.79,3.79,0,0,0,2,1.36,3.42,3.42,0,0,0,0,.64l.91-.68c.2-1.46.41-2.92.66-4.34a2.61,2.61,0,0,1,1.75,2.55l.9-.66a3.54,3.54,0,0,0-.64-1.52,3.46,3.46,0,0,0-2-1.26Z" transform="translate(-1629.42 -486.39)"/><path class="b2989370-c4bf-4ca9-856a-66f49118267c" d="M1672,647.43l-1,.59c-.35,1.42-.7,2.86-1,4.34a2.76,2.76,0,0,1-1.55-2.8l-1,.58a4.12,4.12,0,0,0,.55,1.67,3.56,3.56,0,0,0,1.79,1.5V654l.93-.62q.46-2.24,1-4.38a2.53,2.53,0,0,1,1.5,2.71l.94-.63a3.47,3.47,0,0,0-2.22-3A2.84,2.84,0,0,0,1672,647.43Z" transform="translate(-1629.42 -486.39)"/><path class="b2989370-c4bf-4ca9-856a-66f49118267c" d="M1669.86,643.8l-1,.52c-.48,1.42-.77,2.8-1.14,4.24a2.62,2.62,0,0,1-1.52-2.82l-1,.53a3,3,0,0,0,.48,1.67,3.78,3.78,0,0,0,1.81,1.56,3.42,3.42,0,0,0,0,.64l1-.58c.35-1.44.72-2.87,1.09-4.25a2.58,2.58,0,0,1,1.49,2.69l1-.57a3.42,3.42,0,0,0-2.24-3A4.58,4.58,0,0,0,1669.86,643.8Z" transform="translate(-1629.42 -486.39)"/><path class="b2989370-c4bf-4ca9-856a-66f49118267c" d="M1668,640l-1,.49c-.49,1.36-1,2.78-1.44,4.22a2.77,2.77,0,0,1-1.29-2.94l-1,.47a3.74,3.74,0,0,0,.37,1.71,3.61,3.61,0,0,0,1.63,1.69c0,.22,0,.43,0,.65l1-.53c.46-1.46.93-2.88,1.44-4.26a2.61,2.61,0,0,1,1.22,2.84l1-.52a3.69,3.69,0,0,0-.34-1.64,3.34,3.34,0,0,0-1.59-1.58A3.94,3.94,0,0,0,1668,640Z" transform="translate(-1629.42 -486.39)"/><path class="b2989370-c4bf-4ca9-856a-66f49118267c" d="M1666.24,636.23l-1,.42c-.63,1.37-1,2.71-1.56,4.11a2.62,2.62,0,0,1-1.13-3l-1,.43a2.81,2.81,0,0,0,.31,1.71,3.69,3.69,0,0,0,1.66,1.74,2.15,2.15,0,0,0,0,.62l1-.49c.48-1.4,1-2.76,1.5-4.1a2.57,2.57,0,0,1,1.22,2.82l1-.47a3.2,3.2,0,0,0-.33-1.61,3.61,3.61,0,0,0-1.59-1.62A4.55,4.55,0,0,0,1666.24,636.23Z" transform="translate(-1629.42 -486.39)"/><path class="b2989370-c4bf-4ca9-856a-66f49118267c" d="M1664.78,632.16l-1,.39c-.64,1.32-1.25,2.66-1.85,4.05a2.73,2.73,0,0,1-1-3l-1.05.37a3.86,3.86,0,0,0,.21,1.75,1.86,1.86,0,0,1,1.34,2.47l1-.43c.61-1.4,1.23-2.76,1.85-4.1a2.61,2.61,0,0,1,.94,3l1-.43a3.35,3.35,0,0,0-.18-1.66,3.31,3.31,0,0,0-1.42-1.73A3.08,3.08,0,0,0,1664.78,632.16Z" transform="translate(-1629.42 -486.39)"/><path class="b2989370-c4bf-4ca9-856a-66f49118267c" d="M1663.4,628.17l-1.09.27c-.76,1.31-1.33,2.59-2,3.89a2.55,2.55,0,0,1-.91-3.05l-1.07.31a2.91,2.91,0,0,0,.13,1.75,3.92,3.92,0,0,0,1.48,1.95,1.07,1.07,0,0,1-.13.62l1.07-.37c.62-1.36,1.24-2.67,1.94-3.89a2.6,2.6,0,0,1,1,2.94l1-.39a3.16,3.16,0,0,0-.16-1.64,3.63,3.63,0,0,0-1.44-1.75A3.48,3.48,0,0,0,1663.4,628.17Z" transform="translate(-1629.42 -486.39)"/><path class="b2989370-c4bf-4ca9-856a-66f49118267c" d="M1662.33,624.08l-1.09.28c-.76,1.24-1.5,2.53-2.24,3.89a2.78,2.78,0,0,1-.68-3.14l-1.07.28a3.7,3.7,0,0,0,0,1.75,3.57,3.57,0,0,0,1.28,1.94,2.29,2.29,0,0,1-.19.63l1.09-.31c.74-1.35,1.48-2.65,2.24-3.9a2.59,2.59,0,0,1,.66,2.94l1.07-.33a3.83,3.83,0,0,0,0-1.65,3.36,3.36,0,0,0-1.25-2A1.63,1.63,0,0,0,1662.33,624.08Z" transform="translate(-1629.42 -486.39)"/><path class="b2989370-c4bf-4ca9-856a-66f49118267c" d="M1661.33,620l-1.1.23c-.88,1.21-1.56,2.43-2.34,3.72a2.62,2.62,0,0,1-.62-3.13l-1.09.21a2.84,2.84,0,0,0,0,1.73,3.79,3.79,0,0,0,1.28,1.95,2.1,2.1,0,0,0-.19.6l1.09-.27c.76-1.3,1.52-2.54,2.27-3.74a2.57,2.57,0,0,1,.65,3l1.09-.25a3.52,3.52,0,0,0-1.25-3.6A4.54,4.54,0,0,0,1661.33,620Z" transform="translate(-1629.42 -486.39)"/><path class="b2989370-c4bf-4ca9-856a-66f49118267c" d="M1660.69,615.77l-1.11.18c-.87,1.17-1.74,2.37-2.62,3.62a2.76,2.76,0,0,1-.3-3.19l-1.1.17a3.63,3.63,0,0,0-.14,1.73,3.79,3.79,0,0,0,1.07,2.11,4,4,0,0,0-.25.6l1.11-.23c.87-1.25,1.73-2.48,2.62-3.64a2.53,2.53,0,0,1,.33,3l1.09-.21a3.23,3.23,0,0,0,.16-1.66,3.36,3.36,0,0,0-1-1.94A2.91,2.91,0,0,0,1660.69,615.77Z" transform="translate(-1629.42 -486.39)"/><path class="b2989370-c4bf-4ca9-856a-66f49118267c" d="M1660.09,611.59l-1.11.12c-1,1.11-1.79,2.27-2.69,3.46A2.61,2.61,0,0,1,1656,612h-1.11a2.93,2.93,0,0,0-.19,1.73,3.91,3.91,0,0,0,1.07,2.12,2.82,2.82,0,0,0-.23.61l1.14-.08q1.3-1.82,2.63-3.5a2.57,2.57,0,0,1,.35,3.07l1.09-.18a3.24,3.24,0,0,0,.18-1.63,3.6,3.6,0,0,0-1.07-1.95A5.39,5.39,0,0,0,1660.09,611.59Z" transform="translate(-1629.42 -486.39)"/><path class="b2989370-c4bf-4ca9-856a-66f49118267c" d="M1659.87,607.37h-1.1c-1,1.09-2,2.2-3,3.35a2.73,2.73,0,0,1,0-3.2h-1.11a3.63,3.63,0,0,0-.31,1.72,3.57,3.57,0,0,0,.85,2.2,3.36,3.36,0,0,0-.31.56H1656q1.49-1.75,3-3.39a2.64,2.64,0,0,1,0,3.1l1.09-.12a3.41,3.41,0,0,0,.33-1.63,3.26,3.26,0,0,0-.86-2.07A2.11,2.11,0,0,0,1659.87,607.37Z" transform="translate(-1629.42 -486.39)"/><path class="b2989370-c4bf-4ca9-856a-66f49118267c" d="M1659.66,603.15h-1.05c-1,1-1.95,2.1-3,3.19a2.75,2.75,0,0,1,0-3.19h-1.13a3.69,3.69,0,0,0-.31,1.71A3.94,3.94,0,0,0,1655,607a6.12,6.12,0,0,0-.31.56h1.13c1-1.11,1.94-2.2,3-3.23a2.64,2.64,0,0,1,0,3.08h1.11a3.47,3.47,0,0,0,.31-1.62,3.4,3.4,0,0,0-.86-2.1A2.89,2.89,0,0,0,1659.66,603.15Z" transform="translate(-1629.42 -486.39)"/><path class="b2989370-c4bf-4ca9-856a-66f49118267c" d="M1659.87,598.9h-1.1c-1.11,1-2.2,2-3.31,3a2.71,2.71,0,0,1,.29-3.17h-1.11a3.68,3.68,0,0,0-.49,1.69,3.54,3.54,0,0,0,.57,2.12,3.94,3.94,0,0,0-.35.55h1.13c1.09-1,2.18-2.09,3.29-3.08a2.6,2.6,0,0,1-.18,3.1h1.11a4.15,4.15,0,0,1,.15-4.25Z" transform="translate(-1629.42 -486.39)"/><path class="b2989370-c4bf-4ca9-856a-66f49118267c" d="M1660.09,594.68l-1.11-.12c-1.09.94-2.2,2-3.29,2.88a2.71,2.71,0,0,1,.29-3.17l-1.11-.11a3.59,3.59,0,0,0-.48,1.67,3.63,3.63,0,0,0,.62,2.3,3.25,3.25,0,0,0-.37.52h1.13c1.09-1,2.2-1.95,3.29-2.94a2.62,2.62,0,0,1-.27,3.08h1.1a3.39,3.39,0,0,0,.47-1.48,3.52,3.52,0,0,0-.62-2.18A3,3,0,0,0,1660.09,594.68Z" transform="translate(-1629.42 -486.39)"/><path class="b2989370-c4bf-4ca9-856a-66f49118267c" d="M1660.69,590.48l-1.11-.16c-1.18.86-2.39,1.77-3.58,2.71a2.77,2.77,0,0,1,.66-3.16l-1.1-.15a3.78,3.78,0,0,0-.26,3.93,2.38,2.38,0,0,0-.37.51l1.11.11c1.13-.95,2.39-1.94,3.56-2.74a2.67,2.67,0,0,1-.54,3l1.09.12a4.33,4.33,0,0,0,.62-1.56,3.34,3.34,0,0,0-.43-2.18A1.93,1.93,0,0,0,1660.69,590.48Z" transform="translate(-1629.42 -486.39)"/><path class="b2989370-c4bf-4ca9-856a-66f49118267c" d="M1661.33,586.29l-1.1-.21-3.57,2.55a2.76,2.76,0,0,1,.61-3.13l-1.09-.22a3.9,3.9,0,0,0-.26,3.89,3.72,3.72,0,0,0-.4.49l1.11.18c1.18-.92,2.37-1.78,3.56-2.61a2.58,2.58,0,0,1-.59,3l1.09.16a3,3,0,0,0,.64-1.52,3.45,3.45,0,0,0-.4-2.22A2.45,2.45,0,0,0,1661.33,586.29Z" transform="translate(-1629.42 -486.39)"/><path class="b2989370-c4bf-4ca9-856a-66f49118267c" d="M1662.33,582.19l-1.09-.27c-1.27.74-2.55,1.51-3.89,2.33a2.71,2.71,0,0,1,.91-3l-1.07-.28a3.62,3.62,0,0,0-.82,1.56,3.43,3.43,0,0,0,.18,2.34,3.12,3.12,0,0,0-.43.46l1.11.22c1.19-.86,2.55-1.62,3.79-2.38a2.68,2.68,0,0,1-.83,3l1.09.21a4.73,4.73,0,0,0,.74-1.47,3.27,3.27,0,0,0-.2-2.2A4.15,4.15,0,0,0,1662.33,582.19Z" transform="translate(-1629.42 -486.39)"/><path class="b2989370-c4bf-4ca9-856a-66f49118267c" d="M1663.4,578.08l-1.09-.23c-1.25.68-2.53,1.42-3.8,2.18a2.71,2.71,0,0,1,.92-3.06l-1.07-.33a3.83,3.83,0,0,0-.82,1.54,3.92,3.92,0,0,0,.17,2.37,2.45,2.45,0,0,0-.46.45l1.09.27c1.28-.77,2.55-1.51,3.89-2.21a2.52,2.52,0,0,1-.9,2.93l1.09.28a3.28,3.28,0,0,0,.78-1.44,3.51,3.51,0,0,0-.19-2.26A3.81,3.81,0,0,0,1663.4,578.08Z" transform="translate(-1629.42 -486.39)"/><path class="b2989370-c4bf-4ca9-856a-66f49118267c" d="M1664.78,574.09l-1-.37c-1.34.61-2.69,1.27-4,1.95a2.75,2.75,0,0,1,1.21-3l-1.05-.39a3.72,3.72,0,0,0-1,1.48,3.36,3.36,0,0,0,0,2.34,4.58,4.58,0,0,0-.46.42l1.09.34a38.53,38.53,0,0,1,4-1.95,2.72,2.72,0,0,1-1.16,2.9l1.07.31a4.51,4.51,0,0,0,.87-1.4,3.38,3.38,0,0,0,0-2.22A2.74,2.74,0,0,0,1664.78,574.09Z" transform="translate(-1629.42 -486.39)"/><path class="b2989370-c4bf-4ca9-856a-66f49118267c" d="M1666.24,570.07l-1-.43c-1.31.56-2.65,1.16-4,1.79a2.76,2.76,0,0,1,1.3-2.9l-1.11-.41a3.54,3.54,0,0,0-1,1.44,3.84,3.84,0,0,0,0,2.37l-.51.39,1.07.39c1.35-.64,2.69-1.26,4-1.83a2.57,2.57,0,0,1-1.16,2.84l1,.37a3.22,3.22,0,0,0,.93-1.36,3.5,3.5,0,0,0,0-2.26A3.39,3.39,0,0,0,1666.24,570.07Z" transform="translate(-1629.42 -486.39)"/><path class="b2989370-c4bf-4ca9-856a-66f49118267c" d="M1668,566.29l-1-.49c-1.38.49-2.79,1-4.23,1.54a2.79,2.79,0,0,1,1.5-2.82l-1-.49a4,4,0,0,0-1.11,1.38,3.58,3.58,0,0,0-.29,2.32,2.63,2.63,0,0,0-.49.39l1,.43c1.33-.61,2.83-1.09,4.19-1.6a2.72,2.72,0,0,1-1.4,2.75l1,.42a4.74,4.74,0,0,0,1-1.3,3.46,3.46,0,0,0,.25-2.22A3.5,3.5,0,0,0,1668,566.29Z" transform="translate(-1629.42 -486.39)"/><path class="b2989370-c4bf-4ca9-856a-66f49118267c" d="M1669.86,562.48l-1-.55-4.16,1.4a2.76,2.76,0,0,1,1.5-2.82l-1-.52a3.62,3.62,0,0,0-1.09,1.36,3.54,3.54,0,0,0-.31,2.35,5,5,0,0,0-.55.33l1,.49c1.42-.51,2.8-1,4.19-1.42a2.58,2.58,0,0,1-1.46,2.7l1,.49a3.37,3.37,0,0,0,1-1.26,3.52,3.52,0,0,0,.25-2.26A2.47,2.47,0,0,0,1669.86,562.48Z" transform="translate(-1629.42 -486.39)"/><path class="b2989370-c4bf-4ca9-856a-66f49118267c" d="M1672,558.84l-1-.59c-1.42.33-2.88.72-4.33,1.11a2.76,2.76,0,0,1,1.75-2.66l-1-.57a4,4,0,0,0-1.22,1.25,3.61,3.61,0,0,0-.51,2.29,3,3,0,0,0-.54.32l1,.54c1.38-.47,2.92-.82,4.32-1.19a2.69,2.69,0,0,1-1.66,2.61l1,.53a4.73,4.73,0,0,0,1.15-1.21,3.39,3.39,0,0,0,.44-2.18A2.9,2.9,0,0,0,1672,558.84Z" transform="translate(-1629.42 -486.39)"/><path class="b2989370-c4bf-4ca9-856a-66f49118267c" d="M1674.18,555.22l-.9-.72-4.28,1a2.75,2.75,0,0,1,1.77-2.67l-.93-.6a3.87,3.87,0,0,0-1.75,3.54,3.1,3.1,0,0,0-.57.3l1,.58c1.46-.37,2.88-.72,4.3-1a2.6,2.6,0,0,1-1.72,2.57l1,.58a3.33,3.33,0,0,0,1.16-1.17,3.4,3.4,0,0,0,.49-2.2Z" transform="translate(-1629.42 -486.39)"/><path class="b2989370-c4bf-4ca9-856a-66f49118267c" d="M1676.73,551.81l-.92-.68c-1.46.2-2.94.43-4.43.68a2.7,2.7,0,0,1,1.94-2.47l-.82-.68a3.66,3.66,0,0,0-1.34,1.13,3.56,3.56,0,0,0-.74,2.22,1.93,1.93,0,0,0-.56.27l.93.62c1.44-.31,3-.52,4.42-.74a2.66,2.66,0,0,1-2,2.42l.94.62a4.63,4.63,0,0,0,1.26-1.07,3.36,3.36,0,0,0,.66-2.14A3.28,3.28,0,0,0,1676.73,551.81Z" transform="translate(-1629.42 -486.39)"/><path class="b2989370-c4bf-4ca9-856a-66f49118267c" d="M1679.26,548.41l-.88-.72c-1.42.17-2.86.35-4.34.58a2.75,2.75,0,0,1,2-2.49l-.86-.7a3.64,3.64,0,0,0-1.32,1.11,3.69,3.69,0,0,0-.76,2.26,2.57,2.57,0,0,0-.6.23l.91.66c1.46-.21,2.92-.43,4.36-.58a2.58,2.58,0,0,1-2,2.39l.9.66a3.06,3.06,0,0,0,1.26-1,3.51,3.51,0,0,0,.76-2.1A3.64,3.64,0,0,0,1679.26,548.41Z" transform="translate(-1629.42 -486.39)"/><path class="b2989370-c4bf-4ca9-856a-66f49118267c" d="M1682.08,545.27l-.82-.75c-1.48,0-3,.13-4.48.25a2.74,2.74,0,0,1,2.24-2.28l-.81-.76a3.89,3.89,0,0,0-1.46,1,3.69,3.69,0,0,0-.94,2.16,2.34,2.34,0,0,0-.62.19l.87.72c1.5-.16,3-.23,4.48-.31a2.61,2.61,0,0,1-2.14,2.22l.86.7a3.66,3.66,0,0,0,1.36-.94,3.36,3.36,0,0,0,.87-2Z" transform="translate(-1629.42 -486.39)"/><path class="b2989370-c4bf-4ca9-856a-66f49118267c" d="M1684.94,542.14l-.8-.8c-1.44,0-2.9,0-4.38.14a2.78,2.78,0,0,1,2.2-2.28l-.78-.77a3.61,3.61,0,0,0-1.44,1,3.92,3.92,0,0,0-1,2.18,3.78,3.78,0,0,0-.6.17l.83.74,4.38-.17a2.52,2.52,0,0,1-2.16,2.2l.84.75a3.4,3.4,0,0,0,1.36-.91,3.6,3.6,0,0,0,.9-2.08Z" transform="translate(-1629.42 -486.39)"/><path class="b2989370-c4bf-4ca9-856a-66f49118267c" d="M1688.07,539.28l-.76-.84c-1.46,0-3-.13-4.47-.15a2.74,2.74,0,0,1,2.45-2.06l-.74-.84a3.73,3.73,0,0,0-1.54.86,3.6,3.6,0,0,0-1,2l-.64.14.8.79c1.51,0,3,0,4.49.14a2.56,2.56,0,0,1-2.37,1.95l.8.79a3.38,3.38,0,0,0,1.45-.79,3.33,3.33,0,0,0,1.07-1.95A2.09,2.09,0,0,0,1688.07,539.28Z" transform="translate(-1629.42 -486.39)"/><path class="b2989370-c4bf-4ca9-856a-66f49118267c" d="M1691.2,536.46l-.7-.88c-1.46-.15-2.9-.21-4.37-.29a2.69,2.69,0,0,1,2.45-2l-.78-.86a3.65,3.65,0,0,0-1.54.82,3.91,3.91,0,0,0-1.17,2.08,3.24,3.24,0,0,0-.62.12l.76.82c1.48,0,2.94.15,4.38.25a2.57,2.57,0,0,1-2.36,1.95l.74.81a3.11,3.11,0,0,0,1.46-.76,3.51,3.51,0,0,0,1.07-1.94A5.05,5.05,0,0,0,1691.2,536.46Z" transform="translate(-1629.42 -486.39)"/><path class="b2989370-c4bf-4ca9-856a-66f49118267c" d="M1694.61,533.91l-.68-.82c-1.44-.23-2.92-.42-4.42-.6a2.71,2.71,0,0,1,2.63-1.81l-.66-.89a3.75,3.75,0,0,0-3,2.62,3.42,3.42,0,0,0-.64,0l.72.88c1.51.17,3,.37,4.45.58a2.58,2.58,0,0,1-2.55,1.75l.7.86a3.56,3.56,0,0,0,1.54-.64,3.36,3.36,0,0,0,1.25-2A2.14,2.14,0,0,0,1694.61,533.91Z" transform="translate(-1629.42 -486.39)"/><path class="b2989370-c4bf-4ca9-856a-66f49118267c" d="M1698,531.4l-.62-.93c-1.46-.31-2.86-.49-4.34-.72a2.63,2.63,0,0,1,2.67-1.77l-.62-.94a3.1,3.1,0,0,0-1.62.66,3.69,3.69,0,0,0-1.36,1.95,3.42,3.42,0,0,0-.64,0l.66.89c1.48.22,2.94.43,4.34.69A2.55,2.55,0,0,1,1694,533l.66.89a3.54,3.54,0,0,0,1.52-.64,1.41,1.41,0,0,1,1.88-1.83Z" transform="translate(-1629.42 -486.39)"/><path class="b2989370-c4bf-4ca9-856a-66f49118267c" d="M1701.63,529.2l-.58-1c-1.42-.37-2.86-.7-4.34-1a2.73,2.73,0,0,1,2.78-1.56l-.56-.95a4,4,0,0,0-1.67.54,3.74,3.74,0,0,0-1.52,1.79,3.42,3.42,0,0,0-.64,0l.62,1q2.25.46,4.38,1a2.6,2.6,0,0,1-2.71,1.5l.62.93a3.47,3.47,0,0,0,1.6-.51,3.24,3.24,0,0,0,1.4-1.71Z" transform="translate(-1629.42 -486.39)"/><path class="b2989370-c4bf-4ca9-856a-66f49118267c" d="M1705.31,527.06l-.52-1c-1.42-.49-2.81-.78-4.25-1.15a2.62,2.62,0,0,1,2.83-1.56l-.53-1a3.14,3.14,0,0,0-1.69.49,3.68,3.68,0,0,0-1.54,1.81H1699l.58,1c1.44.35,2.86.7,4.24,1.09a2.56,2.56,0,0,1-2.68,1.5l.56,1a3.39,3.39,0,0,0,3-2.24Z" transform="translate(-1629.42 -486.39)"/><path class="b2989370-c4bf-4ca9-856a-66f49118267c" d="M1709.09,525.31l-.49-1c-1.36-.49-2.78-1-4.22-1.44a2.75,2.75,0,0,1,2.88-1.44l-.49-1a3.74,3.74,0,0,0-1.71.37,3.61,3.61,0,0,0-1.67,1.63,3.53,3.53,0,0,0-.65,0l.63.93c1.46.47,2.88.94,4.26,1.44a2.61,2.61,0,0,1-2.84,1.23l.52,1a3.6,3.6,0,0,0,1.64-.33,3.41,3.41,0,0,0,1.57-1.59A2.35,2.35,0,0,0,1709.09,525.31Z" transform="translate(-1629.42 -486.39)"/><path class="b2989370-c4bf-4ca9-856a-66f49118267c" d="M1712.92,523.36l-.43-1.05c-1.38-.62-2.7-1-4.1-1.55a2.59,2.59,0,0,1,2.95-1.23l-.42-1a2.84,2.84,0,0,0-1.74.31,3.8,3.8,0,0,0-1.71,1.63h-.62l.41,1c1.42.48,2.78,1,4.12,1.5a2.56,2.56,0,0,1-2.82,1.22l.47,1a3.45,3.45,0,0,0,1.61-.33,3.67,3.67,0,0,0,1.68-1.46Z" transform="translate(-1629.42 -486.39)"/><path class="b2989370-c4bf-4ca9-856a-66f49118267c" d="M1717,522l-.37-1.05c-1.33-.64-2.67-1.26-4.07-1.94a2.76,2.76,0,0,1,3.06-1l-.39-1a3.83,3.83,0,0,0-1.74.22,3.45,3.45,0,0,0-1.82,1.46,3.71,3.71,0,0,0-.65-.12l.43,1c1.4.6,2.76,1.23,4.09,2a2.57,2.57,0,0,1-2.94.93l.43,1a3.38,3.38,0,0,0,3.38-1.59A3.84,3.84,0,0,0,1717,522Z" transform="translate(-1629.42 -486.39)"/><path class="b2989370-c4bf-4ca9-856a-66f49118267c" d="M1720.88,520.58l-.31-1.11c-1.31-.78-2.59-1.32-3.89-1.94a2.56,2.56,0,0,1,3-.92l-.37-1a2.92,2.92,0,0,0-1.73.14,3.74,3.74,0,0,0-2,1.48l-.62-.14.37,1.07c1.34.62,2.67,1.24,3.89,2a2.6,2.6,0,0,1-2.94.95l.37,1a3.28,3.28,0,0,0,1.64-.16,3.63,3.63,0,0,0,1.77-1.44A2.18,2.18,0,0,0,1720.88,520.58Z" transform="translate(-1629.42 -486.39)"/><path class="b2989370-c4bf-4ca9-856a-66f49118267c" d="M1725,519.47l-.21-1c-1.24-.76-2.53-1.5-3.89-2.24a2.76,2.76,0,0,1,3.11-.62l-.27-1.07a4,4,0,0,0-1.75,0,3.79,3.79,0,0,0-2,1.28l-.62-.19.33,1.09c1.34.72,2.63,1.48,3.89,2.24a2.59,2.59,0,0,1-3,.64l.33,1a3.53,3.53,0,0,0,3.6-1.25A2.16,2.16,0,0,0,1725,519.47Z" transform="translate(-1629.42 -486.39)"/><path class="b2989370-c4bf-4ca9-856a-66f49118267c" d="M1729.09,518.54l-.21-1c-1.23-.88-2.44-1.56-3.72-2.34a2.56,2.56,0,0,1,3.13-.62l-.21-1.09a2.9,2.9,0,0,0-1.75,0,3.63,3.63,0,0,0-1.95,1.28,2.1,2.1,0,0,0-.6-.19l.27,1.09c1.3.74,2.54,1.5,3.74,2.28a2.57,2.57,0,0,1-3,.64l.27,1.07a3.43,3.43,0,0,0,1.68-.18,3.63,3.63,0,0,0,1.94-1.24Z" transform="translate(-1629.42 -486.39)"/><path class="b2989370-c4bf-4ca9-856a-66f49118267c" d="M1733.29,517.9l-.17-1.11q-1.75-1.31-3.62-2.63a2.75,2.75,0,0,1,3.19-.35l-.14-1.11a3.83,3.83,0,0,0-1.75-.14,3.66,3.66,0,0,0-2.14,1.07l-.6-.25.21,1.11c1.27.88,2.47,1.73,3.66,2.61a2.57,2.57,0,0,1-3.07.35l.21,1.09a3.64,3.64,0,0,0,1.67.15,3.36,3.36,0,0,0,2-1.05A3.2,3.2,0,0,0,1733.29,517.9Z" transform="translate(-1629.42 -486.39)"/><path class="b2989370-c4bf-4ca9-856a-66f49118267c" d="M1737.48,517.29l-.12-1.13c-1.13-.95-2.28-1.77-3.46-2.66a2.62,2.62,0,0,1,3.17-.33v-1.09a2.94,2.94,0,0,0-1.73-.2,3.94,3.94,0,0,0-2.14,1.07,4.35,4.35,0,0,0-.59-.25l.18,1.13q1.8,1.32,3.5,2.63a2.6,2.6,0,0,1-3.07.35l.17,1.09a3.16,3.16,0,0,0,1.64.15,3.57,3.57,0,0,0,1.94-1A3.2,3.2,0,0,0,1737.48,517.29Z" transform="translate(-1629.42 -486.39)"/><path class="b2989370-c4bf-4ca9-856a-66f49118267c" d="M1741.7,517.08V516c-1.07-1-2.18-2-3.35-3a2.75,2.75,0,0,1,3.21,0v-1.11a3.93,3.93,0,0,0-1.73-.33,3.73,3.73,0,0,0-2.18.88,2.05,2.05,0,0,0-.56-.31v1.11c1.17,1,2.29,2,3.38,3a2.57,2.57,0,0,1-3.09,0l.12,1.11a3.53,3.53,0,0,0,1.63.33,3.39,3.39,0,0,0,2.06-.85A4.21,4.21,0,0,0,1741.7,517.08Z" transform="translate(-1629.42 -486.39)"/><path class="b2989370-c4bf-4ca9-856a-66f49118267c" d="M1745.92,516.86v-1.12c-1-1-2.08-2-3.19-3a2.75,2.75,0,0,1,3.19,0v-1.07a3.53,3.53,0,0,0-1.69-.39,3.72,3.72,0,0,0-2.22.86,3.5,3.5,0,0,0-.56-.32V513c1.11,1,2.18,1.95,3.23,3a2.61,2.61,0,0,1-3.1,0v1.11a3.35,3.35,0,0,0,1.62.33,3.57,3.57,0,0,0,2.1-.86A2.46,2.46,0,0,0,1745.92,516.86Z" transform="translate(-1629.42 -486.39)"/><path class="b2989370-c4bf-4ca9-856a-66f49118267c" d="M1750.16,517.08V516c-1-1.09-1.94-2.18-3.05-3.29a2.78,2.78,0,0,1,3.19.29v-1.11a3.8,3.8,0,0,0-3.89.14,3.53,3.53,0,0,0-.55-.37v1.13c1.07,1.11,2.11,2.2,3.1,3.31a2.64,2.64,0,0,1-3.1-.29v1.1a3.42,3.42,0,0,0,3.74-.13A2.93,2.93,0,0,0,1750.16,517.08Z" transform="translate(-1629.42 -486.39)"/><path class="b2989370-c4bf-4ca9-856a-66f49118267c" d="M1754.39,517.29l.11-1.13c-.93-1.09-1.94-2.18-2.9-3.26a2.74,2.74,0,0,1,3.2.27v-1.09a3.75,3.75,0,0,0-1.66-.51,3.79,3.79,0,0,0-2.29.64,6.3,6.3,0,0,0-.53-.37V513c1,1.09,2,2.18,2.92,3.29a2.55,2.55,0,0,1-3.06-.29v1.11a3.29,3.29,0,0,0,1.58.49,3.52,3.52,0,0,0,2.2-.63A2.44,2.44,0,0,0,1754.39,517.29Z" transform="translate(-1629.42 -486.39)"/><path class="b2989370-c4bf-4ca9-856a-66f49118267c" d="M1758.57,517.9l.18-1.11c-.88-1.19-1.78-2.4-2.71-3.58a2.7,2.7,0,0,1,3.13.6l.18-1.11a4.06,4.06,0,0,0-1.64-.66,3.72,3.72,0,0,0-2.31.41,1.85,1.85,0,0,0-.51-.37v1.11a41.33,41.33,0,0,1,2.75,3.56,2.68,2.68,0,0,1-3-.57l-.12,1.11a4.11,4.11,0,0,0,1.54.61,3.33,3.33,0,0,0,2.1-.37A4,4,0,0,0,1758.57,517.9Z" transform="translate(-1629.42 -486.39)"/><path class="b2989370-c4bf-4ca9-856a-66f49118267c" d="M1762.75,518.54l.24-1.11c-.82-1.19-1.68-2.37-2.55-3.56a2.72,2.72,0,0,1,3.13.6l.22-1.09a4,4,0,0,0-1.62-.66,3.7,3.7,0,0,0-2.33.41l-.49-.43-.18,1.13c.9,1.19,1.77,2.37,2.59,3.56a2.55,2.55,0,0,1-3-.58l-.18,1.09a3.54,3.54,0,0,0,1.52.64,3.64,3.64,0,0,0,2.24-.41A2.71,2.71,0,0,0,1762.75,518.54Z" transform="translate(-1629.42 -486.39)"/><path class="b2989370-c4bf-4ca9-856a-66f49118267c" d="M1766.88,519.47l.27-1.09c-.74-1.26-1.52-2.55-2.33-3.89a2.73,2.73,0,0,1,3,.92l.27-1.07a3.53,3.53,0,0,0-1.55-.82,3.43,3.43,0,0,0-2.34.17,4.68,4.68,0,0,0-.46-.43l-.22,1.11c.84,1.19,1.62,2.55,2.38,3.9a2.74,2.74,0,0,1-3-.74l-.24,1.09a4.89,4.89,0,0,0,1.48.74,3.33,3.33,0,0,0,2.22-.2A4.25,4.25,0,0,0,1766.88,519.47Z" transform="translate(-1629.42 -486.39)"/><path class="b2989370-c4bf-4ca9-856a-66f49118267c" d="M1771,520.58l.33-1.07c-.68-1.26-1.42-2.53-2.18-3.79a2.68,2.68,0,0,1,3.05.91l.33-1.07a3.78,3.78,0,0,0-3.89-.66,4.78,4.78,0,0,0-.45-.45l-.27,1.09c.78,1.29,1.52,2.55,2.22,3.89a2.53,2.53,0,0,1-2.94-.89l-.27,1.07a3.21,3.21,0,0,0,1.44.8,3.45,3.45,0,0,0,2.26-.2A2.16,2.16,0,0,0,1771,520.58Z" transform="translate(-1629.42 -486.39)"/><path class="b2989370-c4bf-4ca9-856a-66f49118267c" d="M1775,522l.37-1.05c-.6-1.34-1.26-2.7-1.94-4.07a2.76,2.76,0,0,1,3,1.23l.37-1.05a3.86,3.86,0,0,0-1.46-1,3.48,3.48,0,0,0-2.34,0,3.2,3.2,0,0,0-.43-.47l-.33,1.09a40.84,40.84,0,0,1,1.95,4,2.71,2.71,0,0,1-2.82-1.21l-.33,1a4.26,4.26,0,0,0,1.4.88,3.41,3.41,0,0,0,2.23,0A3.17,3.17,0,0,0,1775,522Z" transform="translate(-1629.42 -486.39)"/><path class="b2989370-c4bf-4ca9-856a-66f49118267c" d="M1778.94,523.36l.43-1.05c-.56-1.3-1.17-2.64-1.79-4a2.73,2.73,0,0,1,2.94,1.21l.43-1a3.69,3.69,0,0,0-3.89-1,4,4,0,0,0-.41-.51l-.37,1.07c.64,1.34,1.26,2.69,1.83,4a2.58,2.58,0,0,1-2.84-1.17l-.37,1a3.15,3.15,0,0,0,1.36.94,3.5,3.5,0,0,0,2.26,0A2.66,2.66,0,0,0,1778.94,523.36Z" transform="translate(-1629.42 -486.39)"/><path class="b2989370-c4bf-4ca9-856a-66f49118267c" d="M1782.78,525.31l.48-1c-.48-1.38-1-2.8-1.53-4.22a2.73,2.73,0,0,1,2.82,1.49l.47-1a3.7,3.7,0,0,0-1.37-1.11,3.54,3.54,0,0,0-2.31-.29,6,6,0,0,0-.39-.49l-.43,1c.6,1.32,1.09,2.8,1.6,4.18a2.68,2.68,0,0,1-2.75-1.4l-.43,1a4.94,4.94,0,0,0,1.31,1,3.33,3.33,0,0,0,2.22.23A2.17,2.17,0,0,0,1782.78,525.31Z" transform="translate(-1629.42 -486.39)"/><path class="b2989370-c4bf-4ca9-856a-66f49118267c" d="M1786.59,527.06l.53-1c-.43-1.38-.9-2.76-1.4-4.17a2.76,2.76,0,0,1,2.82,1.5l.52-1a3.6,3.6,0,0,0-1.34-1.11,3.89,3.89,0,0,0-2.35-.29,3.94,3.94,0,0,0-.35-.55l-.47,1c.5,1.4,1,2.8,1.42,4.16a2.58,2.58,0,0,1-2.73-1.44l-.46,1a3.37,3.37,0,0,0,1.26,1,3.53,3.53,0,0,0,2.24.26A5.48,5.48,0,0,0,1786.59,527.06Z" transform="translate(-1629.42 -486.39)"/><path class="b2989370-c4bf-4ca9-856a-66f49118267c" d="M1790.23,529.2l.58-1c-.35-1.44-.72-2.88-1.12-4.34a2.75,2.75,0,0,1,2.68,1.75l.57-.95a4,4,0,0,0-1.25-1.23,3.57,3.57,0,0,0-2.3-.5,2.77,2.77,0,0,0-.33-.55l-.52,1c.46,1.38.81,2.9,1.16,4.32a2.68,2.68,0,0,1-2.66-1.63l-.53,1a4.65,4.65,0,0,0,1.19,1.15,3.46,3.46,0,0,0,2.18.45A3.84,3.84,0,0,0,1790.23,529.2Z" transform="translate(-1629.42 -486.39)"/><path class="b2989370-c4bf-4ca9-856a-66f49118267c" d="M1793.85,531.4l.62-.93c-.29-1.4-.62-2.82-1-4.26a2.7,2.7,0,0,1,2.65,1.77l.62-.94a3.87,3.87,0,0,0-1.23-1.22,3.74,3.74,0,0,0-2.31-.51,3.92,3.92,0,0,0-.29-.58l-.59,1c.37,1.46.72,2.88,1,4.28a2.57,2.57,0,0,1-2.57-1.69l-.56,1a3.67,3.67,0,0,0,1.15,1.17,3.45,3.45,0,0,0,2.22.47A3.54,3.54,0,0,0,1793.85,531.4Z" transform="translate(-1629.42 -486.39)"/><path class="b2989370-c4bf-4ca9-856a-66f49118267c" d="M1797.25,533.91l.69-.82c-.22-1.46-.43-2.93-.7-4.43a2.77,2.77,0,0,1,2.49,1.94l.66-.89a3.61,3.61,0,0,0-1.13-1.35,3.49,3.49,0,0,0-2.22-.73,2.11,2.11,0,0,0-.27-.59l-.62,1c.31,1.44.52,3,.74,4.41a2.65,2.65,0,0,1-2.42-1.94l-.62.93a4.36,4.36,0,0,0,1.07,1.27,3.58,3.58,0,0,0,2.12.66A5.71,5.71,0,0,0,1797.25,533.91Z" transform="translate(-1629.42 -486.39)"/><path class="b2989370-c4bf-4ca9-856a-66f49118267c" d="M1800.66,536.46l.7-.88c-.15-1.42-.35-2.88-.56-4.34a2.76,2.76,0,0,1,2.49,2l.7-.86a4.11,4.11,0,0,0-1.11-1.34,3.69,3.69,0,0,0-2.22-.68,3.92,3.92,0,0,0-.23-.6l-.66.89c.22,1.48.41,2.94.58,4.38A2.58,2.58,0,0,1,1798,533l-.67.89a3.42,3.42,0,0,0,3.2,2A3.86,3.86,0,0,0,1800.66,536.46Z" transform="translate(-1629.42 -486.39)"/><path class="b2989370-c4bf-4ca9-856a-66f49118267c" d="M1803.79,539.28l.76-.84c0-1.45-.13-3-.25-4.45a2.73,2.73,0,0,1,2.2,2.24l.74-.84a3.82,3.82,0,0,0-1-1.44,3.42,3.42,0,0,0-2.14-.93,2.29,2.29,0,0,0-.19-.63l-.72.88c.16,1.5.23,3,.29,4.47a2.6,2.6,0,0,1-2.2-2.14l-.72.86a3.83,3.83,0,0,0,1,1.36,3.31,3.31,0,0,0,1.94.88A1.25,1.25,0,0,1,1803.79,539.28Z" transform="translate(-1629.42 -486.39)"/><path class="b2989370-c4bf-4ca9-856a-66f49118267c" d="M1806.93,542.14l.79-.8c0-1.44,0-2.9-.13-4.37a2.73,2.73,0,0,1,2.27,2.23l.78-.77a3.47,3.47,0,0,0-1-1.44,3.73,3.73,0,0,0-2.18-1,4.11,4.11,0,0,0-.17-.6l-.76.82c0,1.49.15,2.95.17,4.39a2.57,2.57,0,0,1-2.18-2.16l-.74.82a3.39,3.39,0,0,0,.92,1.38,3.51,3.51,0,0,0,2.08.9A2.85,2.85,0,0,0,1806.93,542.14Z" transform="translate(-1629.42 -486.39)"/><path class="b2989370-c4bf-4ca9-856a-66f49118267c" d="M1809.77,545.27l.83-.75c0-1.46.16-3,.18-4.48a2.75,2.75,0,0,1,2.06,2.45l.82-.76a3.82,3.82,0,0,0-.84-1.51,3.56,3.56,0,0,0-2.06-1.15,3.44,3.44,0,0,0-.12-.64l-.8.79a44.7,44.7,0,0,1-.15,4.5,2.59,2.59,0,0,1-2-2.38l-.79.8a3.26,3.26,0,0,0,.79,1.46,3.17,3.17,0,0,0,2,1A2.57,2.57,0,0,0,1809.77,545.27Z" transform="translate(-1629.42 -486.39)"/><path class="b2989370-c4bf-4ca9-856a-66f49118267c" d="M1812.61,548.41l.87-.72c.14-1.44.22-2.88.3-4.36a2.69,2.69,0,0,1,2,2.45l.85-.7a3.27,3.27,0,0,0-.83-1.54,3.72,3.72,0,0,0-2.06-1.16,3.34,3.34,0,0,0-.12-.63l-.84.74c0,1.5-.13,3-.25,4.4a2.58,2.58,0,0,1-2-2.37l-.83.75a3.42,3.42,0,0,0,2.78,2.53A3.23,3.23,0,0,0,1812.61,548.41Z" transform="translate(-1629.42 -486.39)"/><path class="b2989370-c4bf-4ca9-856a-66f49118267c" d="M1815.14,551.81l.91-.68c.22-1.44.43-2.92.61-4.43a2.76,2.76,0,0,1,1.81,2.64l.89-.66a3.78,3.78,0,0,0-2.63-3,3.42,3.42,0,0,0,0-.64l-.87.72c-.18,1.52-.37,3-.59,4.46a2.6,2.6,0,0,1-1.75-2.55l-.85.7a3.58,3.58,0,0,0,.64,1.53,3.32,3.32,0,0,0,1.94,1.25A.82.82,0,0,0,1815.14,551.81Z" transform="translate(-1629.42 -486.39)"/><path class="b2989370-c4bf-4ca9-856a-66f49118267c" d="M1817.65,555.22l.93-.64c.31-1.44.51-2.84.74-4.32a2.62,2.62,0,0,1,1.77,2.64l.94-.6a3.23,3.23,0,0,0-.67-1.62,3.87,3.87,0,0,0-1.94-1.38,3.21,3.21,0,0,0,0-.62l-.92.66c-.19,1.48-.42,2.92-.66,4.34a2.55,2.55,0,0,1-1.75-2.53l-.89.66a3.54,3.54,0,0,0,.64,1.52,3.59,3.59,0,0,0,1.94,1.27Z" transform="translate(-1629.42 -486.39)"/><path class="b2989370-c4bf-4ca9-856a-66f49118267c" d="M1819.85,558.84l1-.59c.35-1.42.7-2.86,1-4.34a2.75,2.75,0,0,1,1.56,2.79l.93-.57a3.69,3.69,0,0,0-2.27-3.19c0-.21,0-.43,0-.64l-.94.62c-.31,1.5-.64,3-1,4.38a2.55,2.55,0,0,1-1.48-2.7l-.93.62a3.32,3.32,0,0,0,.48,1.57,3.44,3.44,0,0,0,1.73,1.42A1.82,1.82,0,0,0,1819.85,558.84Z" transform="translate(-1629.42 -486.39)"/><path class="b2989370-c4bf-4ca9-856a-66f49118267c" d="M1822.07,562.48l1-.55c.46-1.42.78-2.78,1.15-4.22a2.6,2.6,0,0,1,1.51,2.8l1-.52a3.11,3.11,0,0,0-.49-1.68,3.76,3.76,0,0,0-1.81-1.53,3.53,3.53,0,0,0,0-.65l-1,.59c-.35,1.44-.72,2.86-1.09,4.24a2.57,2.57,0,0,1-1.5-2.71l-.95.59a3.51,3.51,0,0,0,.48,1.57,3.63,3.63,0,0,0,1.75,1.44A3.38,3.38,0,0,0,1822.07,562.48Z" transform="translate(-1629.42 -486.39)"/><path class="b2989370-c4bf-4ca9-856a-66f49118267c" d="M1823.84,566.29l1-.49c.48-1.38,1-2.78,1.44-4.22a2.77,2.77,0,0,1,1.28,2.94l1-.49a4.43,4.43,0,0,1-2-4l-1,.54c-.47,1.44-.94,2.86-1.44,4.26a2.6,2.6,0,0,1-1.23-2.84l-1,.53a3.66,3.66,0,0,0,.33,1.63,3.5,3.5,0,0,0,1.58,1.58A4,4,0,0,0,1823.84,566.29Z" transform="translate(-1629.42 -486.39)"/><path class="b2989370-c4bf-4ca9-856a-66f49118267c" d="M1825.63,570.07l1-.43c.64-1.38,1.07-2.71,1.57-4.11a2.57,2.57,0,0,1,1.21,2.94l1-.41a2.82,2.82,0,0,0-.31-1.73,3.7,3.7,0,0,0-1.65-1.71,3.53,3.53,0,0,0,0-.65l-1,.49c-.48,1.4-1,2.78-1.49,4.13a2.57,2.57,0,0,1-1.23-2.84l-1,.48a3.37,3.37,0,0,0,.33,1.62,3.5,3.5,0,0,0,1.59,1.59A4.46,4.46,0,0,0,1825.63,570.07Z" transform="translate(-1629.42 -486.39)"/><path class="b2989370-c4bf-4ca9-856a-66f49118267c" d="M1827.09,574.09l1.05-.37c.64-1.32,1.24-2.68,1.84-4.06a2.77,2.77,0,0,1,1,3.05l1-.39a3.78,3.78,0,0,0-.22-1.73,3.74,3.74,0,0,0-1.46-2,3.24,3.24,0,0,0,.12-.62l-1,.43c-.6,1.4-1.23,2.76-2,4.09a2.57,2.57,0,0,1-.93-2.94l-1,.43a3.44,3.44,0,0,0,.17,1.65,3.36,3.36,0,0,0,1.42,1.73A3.13,3.13,0,0,0,1827.09,574.09Z" transform="translate(-1629.42 -486.39)"/><path class="b2989370-c4bf-4ca9-856a-66f49118267c" d="M1828.47,578.08l1.09-.31c.76-1.32,1.3-2.59,1.94-3.89a2.56,2.56,0,0,1,.92,3l1.07-.33a2.93,2.93,0,0,0-.14-1.73,3.86,3.86,0,0,0-1.48-1.94c.06-.21.1-.42.14-.63l-1.07.39c-.62,1.35-1.25,2.67-2,3.89a2.57,2.57,0,0,1-1-2.93l-1,.37a3.35,3.35,0,0,0,.17,1.63,3.8,3.8,0,0,0,1.42,1.77A2.28,2.28,0,0,1,1828.47,578.08Z" transform="translate(-1629.42 -486.39)"/><path class="b2989370-c4bf-4ca9-856a-66f49118267c" d="M1829.52,582.19l1.11-.27c.76-1.25,1.5-2.53,2.23-3.9a2.8,2.8,0,0,1,.69,3.14l1.07-.28a3.7,3.7,0,0,0,0-1.75,3.5,3.5,0,0,0-1.27-1.94,6.6,6.6,0,0,0,.2-.63l-1.09.34c-.74,1.34-1.48,2.62-2.24,3.89a2.58,2.58,0,0,1-.64-3l-1.07.31a3.67,3.67,0,0,0,0,1.68,3.35,3.35,0,0,0,1.24,1.94A3.12,3.12,0,0,0,1829.52,582.19Z" transform="translate(-1629.42 -486.39)"/><path class="b2989370-c4bf-4ca9-856a-66f49118267c" d="M1830.53,586.29l1.11-.21c.87-1.23,1.56-2.43,2.33-3.72a2.63,2.63,0,0,1,.63,3.14l1.09-.22a3.07,3.07,0,0,0,0-1.75,3.68,3.68,0,0,0-1.29-1.94,4.35,4.35,0,0,0,.2-.61l-1.09.27c-.76,1.3-1.51,2.55-2.28,3.74a2.57,2.57,0,0,1-.64-3l-1.09.28a3.29,3.29,0,0,0,0,1.65,3.51,3.51,0,0,0,1.24,2A3.55,3.55,0,0,0,1830.53,586.29Z" transform="translate(-1629.42 -486.39)"/><path class="b2989370-c4bf-4ca9-856a-66f49118267c" d="M1831.17,590.48l1.11-.16c.88-1.17,1.76-2.37,2.63-3.62a2.72,2.72,0,0,1,.35,3.17l1.11-.15a3.72,3.72,0,0,0,.13-1.75,3.64,3.64,0,0,0-1.07-2.08,3.51,3.51,0,0,0,.24-.61l-1.09.22c-.88,1.26-1.75,2.47-2.63,3.65a2.56,2.56,0,0,1-.33-3.07l-1.09.21a3.23,3.23,0,0,0-.16,1.66,3.44,3.44,0,0,0,1.05,1.94A4.35,4.35,0,0,0,1831.17,590.48Z" transform="translate(-1629.42 -486.39)"/><path class="b2989370-c4bf-4ca9-856a-66f49118267c" d="M1831.79,594.68l1.11-.12c1-1.12,1.79-2.27,2.69-3.46a2.64,2.64,0,0,1,.31,3.17l1.11-.11a2.89,2.89,0,0,0,.19-1.74,3.88,3.88,0,0,0-1.09-2.12,2.15,2.15,0,0,0,.26-.58l-1.11.17c-.88,1.19-1.75,2.36-2.63,3.49a2.54,2.54,0,0,1-.35-3.06l-1.11.16a3.44,3.44,0,0,0,.92,3.66A3.55,3.55,0,0,0,1831.79,594.68Z" transform="translate(-1629.42 -486.39)"/><path class="b2989370-c4bf-4ca9-856a-66f49118267c" d="M1832,598.9h1.11c1-1.07,1.94-2.2,3-3.34a2.75,2.75,0,0,1,0,3.21h1.1a3.7,3.7,0,0,0,.32-1.73,3.48,3.48,0,0,0-.86-2.18,2.77,2.77,0,0,0,.31-.59l-1.13.12c-1,1.17-1.94,2.3-3,3.39a2.64,2.64,0,0,1,0-3.1l-1.08.12a3.42,3.42,0,0,0-.34,1.63,3.27,3.27,0,0,0,.86,2.06A2.94,2.94,0,0,0,1832,598.9Z" transform="translate(-1629.42 -486.39)"/><path class="b2989370-c4bf-4ca9-856a-66f49118267c" d="M1832.2,603.15h1.13c1-1,2-2.09,3-3.2a2.76,2.76,0,0,1,0,3.2h1.13a3.79,3.79,0,0,0-.55-3.9l.31-.56h-1.12c-1,1.11-1.95,2.18-3,3.23a2.6,2.6,0,0,1,0-3.09H1832a3.18,3.18,0,0,0-.31,1.61,3.45,3.45,0,0,0,.85,2.1A2.25,2.25,0,0,0,1832.2,603.15Z" transform="translate(-1629.42 -486.39)"/><circle class="b2989370-c4bf-4ca9-856a-66f49118267c" cx="116.5" cy="116.73" r="52.77"/><path class="b2989370-c4bf-4ca9-856a-66f49118267c" d="M1672.23,620.19l9.73-4.07h-10.6l-.86-4.26,14.24-2.88.55,2.65-11.39,2.3h0l11.89.23.45,2.24-10.86,4.82h0l11.39-2.27.52,2.62-14.24,3Z" transform="translate(-1629.42 -486.39)"/><path class="b2989370-c4bf-4ca9-856a-66f49118267c" d="M1674.39,605.75a6.76,6.76,0,0,1-2.37-.66,3.59,3.59,0,0,1-1.52-1.54,6.57,6.57,0,0,1,.16-5.25,3.68,3.68,0,0,1,1.61-1.44,6.73,6.73,0,0,1,2.41-.6,25.69,25.69,0,0,1,3,0,28.26,28.26,0,0,1,3,.23,7.41,7.41,0,0,1,2.38.74,3.71,3.71,0,0,1,1.48,1.56,5.38,5.38,0,0,1,.44,2.41,5.65,5.65,0,0,1-.6,2.61,3.67,3.67,0,0,1-1.58,1.44,6.68,6.68,0,0,1-2.41.6,25.86,25.86,0,0,1-3,0A17.65,17.65,0,0,1,1674.39,605.75Zm5.62-2.6a8.61,8.61,0,0,0,1.68-.24,1.88,1.88,0,0,0,1-.58,2,2,0,0,0,.08-2.1,2,2,0,0,0-.93-.65,6.7,6.7,0,0,0-1.66-.33c-.68,0-1.52-.11-2.49-.15s-1.81,0-2.49,0a8.61,8.61,0,0,0-1.67.23,2,2,0,0,0-1,.59,1.75,1.75,0,0,0-.31,1.05,1.62,1.62,0,0,0,.26,1,2,2,0,0,0,.93.64,6.62,6.62,0,0,0,1.65.33c.68,0,1.5.12,2.49.16Z" transform="translate(-1629.42 -486.39)"/><path class="b2989370-c4bf-4ca9-856a-66f49118267c" d="M1682.54,585.63h0l-9.72-2.31.62-2.63,14.14,3.41-.77,3.25-10.69,1.14h0l9.91,2.38-.62,2.6-14.15-3.38.78-3.29Z" transform="translate(-1629.42 -486.39)"/><path class="b2989370-c4bf-4ca9-856a-66f49118267c" d="M1681.09,568.76l-2.16,4.73,3.11,1.42,1.94-4.44,2.2,1-2,4.43,3.56,1.62,2.24-4.91,2.2,1-3.49,7.57-13.21-6.08,3.39-7.37Z" transform="translate(-1629.42 -486.39)"/><path class="b2989370-c4bf-4ca9-856a-66f49118267c" d="M1688.91,562.48h0l-3.39-4.93,1.85-2.58,5,8.19,4.65,3.33-1.69,2.39-4.67-3.33-9.34-2.1,2-2.69Z" transform="translate(-1629.42 -486.39)"/><path class="b2989370-c4bf-4ca9-856a-66f49118267c" d="M1700.06,543a6.88,6.88,0,0,1,1.42-.88,3.46,3.46,0,0,1,1.42-.31,2.7,2.7,0,0,1,1.36.37,4.36,4.36,0,0,1,1.32,1.21,3.84,3.84,0,0,1,.8,1.94,2.92,2.92,0,0,1-.6,2h0a2.87,2.87,0,0,1,2.16-.35,3.61,3.61,0,0,1,1.94,1.42,5.59,5.59,0,0,1,.82,1.42,3.61,3.61,0,0,1,.22,1.56,4,4,0,0,1-.55,1.57,6,6,0,0,1-1.5,1.6l-3.89,3L1696.17,546Zm2.72,5.41a2.91,2.91,0,0,0,1.15-1.42,1.8,1.8,0,0,0-.45-1.52,2,2,0,0,0-1.3-.86,2.46,2.46,0,0,0-1.54.65l-.84.64,2.32,3Zm4.17,4.9a3,3,0,0,0,1.07-1.4,2,2,0,0,0-.55-1.77,2.51,2.51,0,0,0-.78-.74,1.61,1.61,0,0,0-.78-.23,1.57,1.57,0,0,0-.77.13,4.37,4.37,0,0,0-.78.47l-1,.86,2.66,3.46Z" transform="translate(-1629.42 -486.39)"/><path class="b2989370-c4bf-4ca9-856a-66f49118267c" d="M1714.34,534.34l9.85,11.38-2.75,1.35-1.94-2.48-3.49,1.72.74,3.05L1714,550.7l-2.86-14.77Zm3.64,8.33-4.15-5.26h0l1.62,6.5Z" transform="translate(-1629.42 -486.39)"/><path class="b2989370-c4bf-4ca9-856a-66f49118267c" d="M1728.66,532.1a1.49,1.49,0,0,0-1.52-.35,1.35,1.35,0,0,0-.79.53,1.84,1.84,0,0,0-.31,1.07,7.75,7.75,0,0,0,.17,1.73c.12.72.31,1.56.58,2.57s.55,1.94.78,2.55a6.13,6.13,0,0,0,.74,1.44,1.74,1.74,0,0,0,.76.58,1.79,1.79,0,0,0,.86,0,2,2,0,0,0,.66-.33,1.22,1.22,0,0,0,.43-.64,4,4,0,0,0,0-1.19,10.74,10.74,0,0,0-.33-1.95l2.84-.74a16.63,16.63,0,0,1,.39,2.22,5.57,5.57,0,0,1-.2,1.95,3.52,3.52,0,0,1-1,1.56,5.39,5.39,0,0,1-2.06,1.09,5.74,5.74,0,0,1-2.67.15,3.53,3.53,0,0,1-1.94-1.11,6.49,6.49,0,0,1-1.25-2.12c-.32-.88-.63-1.85-.93-2.92s-.47-2-.63-3a7.37,7.37,0,0,1,0-2.48,3.87,3.87,0,0,1,1.06-1.94,5.2,5.2,0,0,1,2.41-1.21,4.86,4.86,0,0,1,2.51-.13,3.51,3.51,0,0,1,1.65.89,4.8,4.8,0,0,1,1,1.5c.21.56.38,1.11.52,1.61l-2.84.74A5.28,5.28,0,0,0,1728.66,532.1Z" transform="translate(-1629.42 -486.39)"/><path class="b2989370-c4bf-4ca9-856a-66f49118267c" d="M1740.1,533.52h0l3.35-6,3.17-.2-3.56,6.47,4.91,8-3.31.22-3.35-5.84-1,1.71.25,4.3-2.92.2-.89-14.52,2.93-.19Z" transform="translate(-1629.42 -486.39)"/><path class="b2989370-c4bf-4ca9-856a-66f49118267c" d="M1764.49,533.35a3,3,0,0,0,0-.84,2,2,0,0,0-.37-.68,1.13,1.13,0,0,0-.68-.41,1.6,1.6,0,0,0-1.78.8,11.5,11.5,0,0,0-1.36,3.68c-.19.85-.37,1.61-.46,2.31a8.64,8.64,0,0,0-.14,1.83,2.49,2.49,0,0,0,.33,1.25,1.35,1.35,0,0,0,.9.64,1.22,1.22,0,0,0,.6,0,2.1,2.1,0,0,0,.68-.27,2.25,2.25,0,0,0,.6-.59,2.65,2.65,0,0,0,.43-1l.35-1.44-1.94-.45.5-2.1,4.61,1.11-1.87,7.55-2.1-.51.31-1.3h0a2.83,2.83,0,0,1-1.51.87,4,4,0,0,1-1.81,0,4.38,4.38,0,0,1-2-1,3,3,0,0,1-.95-1.71,7.43,7.43,0,0,1,0-2.49,30.28,30.28,0,0,1,.62-3.29,18.25,18.25,0,0,1,1-3.07,6.55,6.55,0,0,1,1.33-2.07,3.65,3.65,0,0,1,1.79-1,5.36,5.36,0,0,1,2.39,0,4.34,4.34,0,0,1,3.07,2,4.87,4.87,0,0,1,.24,3.56l-2.73-.66A3.64,3.64,0,0,0,1764.49,533.35Z" transform="translate(-1629.42 -486.39)"/><path class="b2989370-c4bf-4ca9-856a-66f49118267c" d="M1772.08,543a4.57,4.57,0,0,0-.37,1,2.28,2.28,0,0,0-.1.82,1.38,1.38,0,0,0,.25.7,1.56,1.56,0,0,0,.68.54,1.43,1.43,0,0,0,.86.18,1.48,1.48,0,0,0,.7-.25,2.4,2.4,0,0,0,.58-.61,7.45,7.45,0,0,0,.49-.87l4.28-9.21,2.67,1.25-4.29,9.18a6.17,6.17,0,0,1-1.32,1.95,3.87,3.87,0,0,1-1.55.85,3.58,3.58,0,0,1-1.66,0,8.48,8.48,0,0,1-1.63-.56,7.51,7.51,0,0,1-1.5-.89,3.31,3.31,0,0,1-1.42-2.94,6.16,6.16,0,0,1,.66-2.34l4.3-9.18,2.65,1.24Z" transform="translate(-1629.42 -486.39)"/><path class="b2989370-c4bf-4ca9-856a-66f49118267c" d="M1792.25,543.29l-5.52,14-2.47-1.81,1.28-2.92-3.11-2.29-2.36,2.08-2.47-1.73,11.68-9.42Zm-5.68,7.06,2.75-6.09h0l-5,4.4Z" transform="translate(-1629.42 -486.39)"/><path class="b2989370-c4bf-4ca9-856a-66f49118267c" d="M1802.78,553.21A4.14,4.14,0,0,1,1804,556a3.73,3.73,0,0,1-1.4,2.64,4.48,4.48,0,0,1-2.18,1.15,2.73,2.73,0,0,1-2.12-.56h0a2.71,2.71,0,0,1,.54,1.67,3.15,3.15,0,0,1-.89,1.66c-.2.21-.39.42-.63.64l-.78.74c-.54.54-1,1-1.22,1.28a1.08,1.08,0,0,0-.27,1h0l-2.18-2.27a1.72,1.72,0,0,1,.33-.68l.56-.61,2-1.94a2.39,2.39,0,0,0,.72-1.21,1.59,1.59,0,0,0-.51-1.3l-1-1.17-4.57,4.11-2-2.18,10.84-9.73Zm-5.56,3.23a2.33,2.33,0,0,0,1.46.88,2.15,2.15,0,0,0,1.63-.7,1.8,1.8,0,0,0,.48-2.49,2,2,0,0,0-.34-.37l-.92-1-3.13,2.8Z" transform="translate(-1629.42 -486.39)"/><path class="b2989370-c4bf-4ca9-856a-66f49118267c" d="M1812.45,567l-10.68,10.59-1.52-2.65,2.36-2.12-1.95-3.35-3,1-1.51-2.64,14.51-3.89Zm-8,4.18,5-4.47h0l-6.37,1.94Z" transform="translate(-1629.42 -486.39)"/><path class="b2989370-c4bf-4ca9-856a-66f49118267c" d="M1809.11,584.91h0l9.49-3,.82,2.57-13.84,4.45-1-3.13,8.6-6.54h0l-9.73,3.13-.81-2.55,13.85-4.45,1,3.21Z" transform="translate(-1629.42 -486.39)"/><path class="b2989370-c4bf-4ca9-856a-66f49118267c" d="M1819.22,599.25l-.37-3.15-12.06,1.4-.29-3,12.06-1.43-.39-3.15,2.38-.27,1.09,9.22Z" transform="translate(-1629.42 -486.39)"/><path class="b2989370-c4bf-4ca9-856a-66f49118267c" d="M1818.78,611.94l.33-5.17-3.43-.22-.29,4.89-2.41-.16.31-4.87-3.89-.25-.33,5.39-2.4-.15.49-8.25,14.52.89-.51,8.12Z" transform="translate(-1629.42 -486.39)"/><path class="b2989370-c4bf-4ca9-856a-66f49118267c" d="M1816.05,624.78l1.25-5-3.33-.81-1.17,4.74-2.33-.58,1.17-4.75-3.9-.93-1.24,5.19-2.34-.58,1.95-8.07,14.13,3.46-2,7.9Z" transform="translate(-1629.42 -486.39)"/><polygon class="b2989370-c4bf-4ca9-856a-66f49118267c" points="117.18 176.38 120.51 181.65 126.58 183.05 122.59 187.84 123.14 194.04 117.36 191.73 111.62 194.18 112.03 187.95 107.94 183.26 113.97 181.73 117.18 176.38"/><polygon class="b2989370-c4bf-4ca9-856a-66f49118267c" points="139.64 171.72 144.72 175.34 150.87 174.33 148.98 180.29 151.84 185.81 145.59 185.87 141.21 190.29 139.25 184.37 133.68 181.57 138.68 177.87 139.64 171.72"/><polygon class="b2989370-c4bf-4ca9-856a-66f49118267c" points="158.69 158.92 164.74 160.36 170.07 157.11 170.56 163.32 175.29 167.39 169.55 169.78 167.15 175.52 163.09 170.79 156.88 170.31 160.13 164.97 158.69 158.92"/><polygon class="b2989370-c4bf-4ca9-856a-66f49118267c" points="74.82 159.39 73.44 165.46 76.75 170.75 70.54 171.32 66.53 176.08 64.08 170.36 58.3 168.03 62.99 163.92 63.42 157.72 68.77 160.91 74.82 159.39"/><polygon class="b2989370-c4bf-4ca9-856a-66f49118267c" points="93.99 171.98 95.02 178.11 100.08 181.77 94.55 184.63 92.64 190.56 88.21 186.18 81.96 186.22 84.76 180.64 82.8 174.72 88.97 175.66 93.99 171.98"/><path class="a1ca4fe3-4a7c-442c-990b-4ae9cd3b057e" d="M1723.12,615.52c8.34,0,12.9,5,12.9,13.62s-4.17,13.47-12.51,13.47h-6.13V615.37Zm1.65,20.71c3.46,0,4.42-2.3,4.42-7,0-5.37-1.66-7.3-4.81-7.3H1724v14.33Z" transform="translate(-1629.42 -486.39)"/><path class="a1ca4fe3-4a7c-442c-990b-4ae9cd3b057e" d="M1748.86,639.07h-6.58l-.7,3.64h-6.73l6.32-27.25h8.9l6.34,27.25h-6.85Zm-1.19-6.41-1.32-7c-.66-3.52-.66-4.5-.7-4.5h0a28.43,28.43,0,0,1-.74,4.5l-1.32,7Z" transform="translate(-1629.42 -486.39)"/><path class="a1ca4fe3-4a7c-442c-990b-4ae9cd3b057e" d="M1774.55,615.52,1767,633v9.73h-6.64V633l-7.49-17.51h6.63l3,7.36a21,21,0,0,1,1.23,4.26h0a18.56,18.56,0,0,1,1.17-4.26l2.93-7.36Z" transform="translate(-1629.42 -486.39)"/><path class="a1ca4fe3-4a7c-442c-990b-4ae9cd3b057e" d="M1716.68,576.1v-3c0-6.17,2.27-12.63,12.88-12.63,8.42,0,13.09,3.74,13.09,11.68v2.57c0,6-2.8,8.42-5.52,9.51v.16c2.57,1,6.3,3.6,6.3,10.14v4.14c0,9.13-4.36,13.62-14,13.62-10.76,0-13.19-6.94-13.19-13.62V596.3h11.25v3.13c0,2.41.54,3.5,1.94,3.5s1.79-1.63,1.79-3.19v-5.62c0-3.74-.85-4.83-4.36-4.83h-3.75v-9.36h4.3c2.33,0,3.73-.31,3.73-3.89v-3.76c0-1.94-.31-3.13-1.71-3.13s-1.94,1.34-1.94,3.29v3.66Z" transform="translate(-1629.42 -486.39)"/><path class="a1ca4fe3-4a7c-442c-990b-4ae9cd3b057e" d="M1774.1,574.31v24.18c0,8.74-4.3,14-14.21,14-10.45,0-13.62-6-13.62-14v-24.1c0-10.14,6.17-14,13.8-14C1768,560.43,1774.1,564.64,1774.1,574.31Zm-15.92-1.4v26.83c0,2,.47,3.19,2,3.19s1.94-1.09,1.94-3.19V572.91c0-1.72-.39-3-1.94-3S1758.18,571.27,1758.18,572.91Z" transform="translate(-1629.42 -486.39)"/></svg>